<mxfile host="Electron" agent="Mozilla/5.0 (Windows NT 10.0; Win64; x64) AppleWebKit/537.36 (KHTML, like Gecko) draw.io/26.2.15 Chrome/134.0.6998.205 Electron/35.2.1 Safari/537.36" version="26.2.15">
  <diagram name="Page-1" id="R-HhSFobrPDyMnDKq3aY">
    <mxGraphModel dx="2809" dy="2139" grid="0" gridSize="10" guides="1" tooltips="1" connect="1" arrows="1" fold="1" page="1" pageScale="1" pageWidth="850" pageHeight="1100" math="0" shadow="0">
      <root>
        <mxCell id="0" />
        <mxCell id="1" parent="0" />
        <mxCell id="bmaizNyVz1rlYpIVx0_s-1" value="" style="shape=document;whiteSpace=wrap;html=1;boundedLbl=1;fillColor=#82E61F;fontColor=#ffffff;strokeColor=#2D7600;" parent="1" vertex="1">
          <mxGeometry x="-124" y="215.5" width="120" height="80" as="geometry" />
        </mxCell>
        <mxCell id="dpVk5hDDHC6IQx6tJARt-37" style="edgeStyle=orthogonalEdgeStyle;rounded=0;orthogonalLoop=1;jettySize=auto;html=1;strokeWidth=3;endArrow=none;endFill=0;" parent="1" source="bmaizNyVz1rlYpIVx0_s-2" target="bmaizNyVz1rlYpIVx0_s-11" edge="1">
          <mxGeometry relative="1" as="geometry">
            <Array as="points">
              <mxPoint x="55" y="371" />
              <mxPoint x="55" y="371" />
            </Array>
          </mxGeometry>
        </mxCell>
        <mxCell id="bmaizNyVz1rlYpIVx0_s-2" value="" style="shape=document;whiteSpace=wrap;html=1;boundedLbl=1;fillColor=#fa6800;fontColor=#000000;strokeColor=#C73500;" parent="1" vertex="1">
          <mxGeometry x="-124" y="335.5" width="140" height="100" as="geometry" />
        </mxCell>
        <mxCell id="bmaizNyVz1rlYpIVx0_s-3" value="" style="shape=internalStorage;whiteSpace=wrap;html=1;backgroundOutline=1;fillColor=#1ba1e2;fontColor=#ffffff;strokeColor=#006EAF;" parent="1" vertex="1">
          <mxGeometry x="-124" y="495.5" width="150" height="140" as="geometry" />
        </mxCell>
        <mxCell id="bmaizNyVz1rlYpIVx0_s-5" value="" style="shape=singleArrow;direction=north;whiteSpace=wrap;html=1;arrowWidth=0.2;arrowSize=0.25;" parent="1" vertex="1">
          <mxGeometry x="-71.5" y="428.5" width="35" height="60" as="geometry" />
        </mxCell>
        <mxCell id="bmaizNyVz1rlYpIVx0_s-6" value="" style="shape=singleArrow;direction=south;whiteSpace=wrap;html=1;" parent="1" vertex="1">
          <mxGeometry x="-69" y="285.5" width="30" height="50" as="geometry" />
        </mxCell>
        <mxCell id="bmaizNyVz1rlYpIVx0_s-7" value="" style="rounded=0;whiteSpace=wrap;html=1;fillColor=#cdeb8b;strokeColor=#36393d;" parent="1" vertex="1">
          <mxGeometry x="149" y="203" width="70" height="440" as="geometry" />
        </mxCell>
        <mxCell id="bmaizNyVz1rlYpIVx0_s-9" value="PLAYBOOK" style="text;strokeColor=none;align=center;fillColor=none;html=1;verticalAlign=middle;whiteSpace=wrap;rounded=0;fontStyle=1;fontSize=14;" parent="1" vertex="1">
          <mxGeometry x="-94" y="355.5" width="80" height="30" as="geometry" />
        </mxCell>
        <mxCell id="bmaizNyVz1rlYpIVx0_s-10" value="MODULES" style="text;strokeColor=none;align=center;fillColor=none;html=1;verticalAlign=middle;whiteSpace=wrap;rounded=0;fontStyle=1;fontSize=14;" parent="1" vertex="1">
          <mxGeometry x="-89" y="535.5" width="80" height="30" as="geometry" />
        </mxCell>
        <mxCell id="dpVk5hDDHC6IQx6tJARt-43" style="edgeStyle=elbowEdgeStyle;rounded=0;orthogonalLoop=1;jettySize=auto;elbow=vertical;html=1;entryX=0;entryY=0.5;entryDx=0;entryDy=0;strokeWidth=3;endArrow=none;endFill=0;" parent="1" source="bmaizNyVz1rlYpIVx0_s-11" target="dpVk5hDDHC6IQx6tJARt-38" edge="1">
          <mxGeometry relative="1" as="geometry" />
        </mxCell>
        <mxCell id="bmaizNyVz1rlYpIVx0_s-11" value="Python&lt;br&gt;BOTO" style="text;strokeColor=none;align=center;fillColor=none;html=1;verticalAlign=middle;whiteSpace=wrap;rounded=0;fontStyle=1;fontSize=14;" parent="1" vertex="1">
          <mxGeometry x="154" y="348" width="60" height="45" as="geometry" />
        </mxCell>
        <mxCell id="bmaizNyVz1rlYpIVx0_s-12" value="AWS Cloud" style="points=[[0,0],[0.25,0],[0.5,0],[0.75,0],[1,0],[1,0.25],[1,0.5],[1,0.75],[1,1],[0.75,1],[0.5,1],[0.25,1],[0,1],[0,0.75],[0,0.5],[0,0.25]];outlineConnect=0;gradientColor=none;html=1;whiteSpace=wrap;fontSize=12;fontStyle=0;container=1;pointerEvents=0;collapsible=0;recursiveResize=0;shape=mxgraph.aws4.group;grIcon=mxgraph.aws4.group_aws_cloud_alt;strokeColor=#232F3E;fillColor=none;verticalAlign=top;align=left;spacingLeft=30;fontColor=#232F3E;dashed=0;" parent="1" vertex="1">
          <mxGeometry x="400" y="47" width="872" height="757" as="geometry" />
        </mxCell>
        <mxCell id="bmaizNyVz1rlYpIVx0_s-13" value="VPC" style="points=[[0,0],[0.25,0],[0.5,0],[0.75,0],[1,0],[1,0.25],[1,0.5],[1,0.75],[1,1],[0.75,1],[0.5,1],[0.25,1],[0,1],[0,0.75],[0,0.5],[0,0.25]];outlineConnect=0;gradientColor=none;html=1;whiteSpace=wrap;fontSize=12;fontStyle=0;container=1;pointerEvents=0;collapsible=0;recursiveResize=0;shape=mxgraph.aws4.group;grIcon=mxgraph.aws4.group_vpc;strokeColor=#248814;fillColor=none;verticalAlign=top;align=left;spacingLeft=30;fontColor=#AAB7B8;dashed=0;" parent="bmaizNyVz1rlYpIVx0_s-12" vertex="1">
          <mxGeometry x="18" y="60" width="810" height="640" as="geometry" />
        </mxCell>
        <mxCell id="bmaizNyVz1rlYpIVx0_s-20" value="" style="verticalLabelPosition=bottom;verticalAlign=top;html=1;shape=mxgraph.basic.rect;fillColor2=none;strokeWidth=3;size=20;indent=5;dashed=1;strokeColor=#128eed;" parent="bmaizNyVz1rlYpIVx0_s-13" vertex="1">
          <mxGeometry x="58" y="53" width="355" height="522" as="geometry" />
        </mxCell>
        <mxCell id="bmaizNyVz1rlYpIVx0_s-27" value="Public subnet" style="points=[[0,0],[0.25,0],[0.5,0],[0.75,0],[1,0],[1,0.25],[1,0.5],[1,0.75],[1,1],[0.75,1],[0.5,1],[0.25,1],[0,1],[0,0.75],[0,0.5],[0,0.25]];outlineConnect=0;gradientColor=none;html=1;whiteSpace=wrap;fontSize=12;fontStyle=0;container=1;pointerEvents=0;collapsible=0;recursiveResize=0;shape=mxgraph.aws4.group;grIcon=mxgraph.aws4.group_security_group;grStroke=0;strokeColor=#248814;fillColor=#E9F3E6;verticalAlign=top;align=left;spacingLeft=30;fontColor=#248814;dashed=0;" parent="bmaizNyVz1rlYpIVx0_s-13" vertex="1">
          <mxGeometry x="71.5" y="76" width="328" height="210" as="geometry" />
        </mxCell>
        <mxCell id="bmaizNyVz1rlYpIVx0_s-26" value="Private subnet" style="points=[[0,0],[0.25,0],[0.5,0],[0.75,0],[1,0],[1,0.25],[1,0.5],[1,0.75],[1,1],[0.75,1],[0.5,1],[0.25,1],[0,1],[0,0.75],[0,0.5],[0,0.25]];outlineConnect=0;gradientColor=none;html=1;whiteSpace=wrap;fontSize=12;fontStyle=0;container=1;pointerEvents=0;collapsible=0;recursiveResize=0;shape=mxgraph.aws4.group;grIcon=mxgraph.aws4.group_security_group;grStroke=0;strokeColor=#147EBA;fillColor=#E6F2F8;verticalAlign=top;align=left;spacingLeft=30;fontColor=#147EBA;dashed=0;" parent="bmaizNyVz1rlYpIVx0_s-13" vertex="1">
          <mxGeometry x="75" y="321" width="324" height="205" as="geometry" />
        </mxCell>
        <mxCell id="dpVk5hDDHC6IQx6tJARt-20" value="route table" style="text;strokeColor=none;align=center;fillColor=none;html=1;verticalAlign=middle;whiteSpace=wrap;rounded=0;fontStyle=1" parent="bmaizNyVz1rlYpIVx0_s-26" vertex="1">
          <mxGeometry x="228" y="82" width="90" height="30" as="geometry" />
        </mxCell>
        <mxCell id="dpVk5hDDHC6IQx6tJARt-12" value="&lt;font style=&quot;font-size: 14px;&quot;&gt;&lt;b&gt;Amazon EC2&lt;/b&gt;&lt;/font&gt;" style="text;strokeColor=none;align=center;fillColor=none;html=1;verticalAlign=middle;whiteSpace=wrap;rounded=0;" parent="bmaizNyVz1rlYpIVx0_s-26" vertex="1">
          <mxGeometry y="159" width="117" height="30" as="geometry" />
        </mxCell>
        <mxCell id="bmaizNyVz1rlYpIVx0_s-17" value="" style="verticalLabelPosition=bottom;verticalAlign=top;html=1;shape=mxgraph.basic.rect;fillColor2=none;strokeWidth=3;size=20;indent=5;dashed=1;strokeColor=#128eed;" parent="bmaizNyVz1rlYpIVx0_s-13" vertex="1">
          <mxGeometry x="446" y="53" width="339" height="521" as="geometry" />
        </mxCell>
        <mxCell id="bmaizNyVz1rlYpIVx0_s-21" value="Public subnet" style="points=[[0,0],[0.25,0],[0.5,0],[0.75,0],[1,0],[1,0.25],[1,0.5],[1,0.75],[1,1],[0.75,1],[0.5,1],[0.25,1],[0,1],[0,0.75],[0,0.5],[0,0.25]];outlineConnect=0;gradientColor=none;html=1;whiteSpace=wrap;fontSize=12;fontStyle=0;container=1;pointerEvents=0;collapsible=0;recursiveResize=0;shape=mxgraph.aws4.group;grIcon=mxgraph.aws4.group_security_group;grStroke=0;strokeColor=#248814;fillColor=#E9F3E6;verticalAlign=top;align=left;spacingLeft=30;fontColor=#248814;dashed=0;" parent="bmaizNyVz1rlYpIVx0_s-13" vertex="1">
          <mxGeometry x="456.5" y="71.5" width="318" height="221.5" as="geometry" />
        </mxCell>
        <mxCell id="dpVk5hDDHC6IQx6tJARt-16" value="" style="rounded=0;whiteSpace=wrap;html=1;shadow=1;fillColor=#fd7e08;" parent="bmaizNyVz1rlYpIVx0_s-21" vertex="1">
          <mxGeometry x="221.5" y="31.5" width="93" height="23" as="geometry" />
        </mxCell>
        <mxCell id="dpVk5hDDHC6IQx6tJARt-36" value="&lt;font style=&quot;font-size: 14px;&quot;&gt;&lt;b&gt;Bastion Host&lt;/b&gt;&lt;/font&gt;" style="text;html=1;align=center;verticalAlign=middle;resizable=0;points=[];autosize=1;strokeColor=none;fillColor=none;" parent="bmaizNyVz1rlYpIVx0_s-21" vertex="1">
          <mxGeometry x="-6" y="108.5" width="104" height="29" as="geometry" />
        </mxCell>
        <mxCell id="bmaizNyVz1rlYpIVx0_s-25" value="Private subnet" style="points=[[0,0],[0.25,0],[0.5,0],[0.75,0],[1,0],[1,0.25],[1,0.5],[1,0.75],[1,1],[0.75,1],[0.5,1],[0.25,1],[0,1],[0,0.75],[0,0.5],[0,0.25]];outlineConnect=0;gradientColor=none;html=1;whiteSpace=wrap;fontSize=12;fontStyle=0;container=1;pointerEvents=0;collapsible=0;recursiveResize=0;shape=mxgraph.aws4.group;grIcon=mxgraph.aws4.group_security_group;grStroke=0;strokeColor=#147EBA;fillColor=#E6F2F8;verticalAlign=top;align=left;spacingLeft=30;fontColor=#147EBA;dashed=0;" parent="bmaizNyVz1rlYpIVx0_s-13" vertex="1">
          <mxGeometry x="462" y="321" width="309" height="205" as="geometry" />
        </mxCell>
        <mxCell id="bmaizNyVz1rlYpIVx0_s-30" value="" style="sketch=0;points=[[0,0,0],[0.25,0,0],[0.5,0,0],[0.75,0,0],[1,0,0],[0,1,0],[0.25,1,0],[0.5,1,0],[0.75,1,0],[1,1,0],[0,0.25,0],[0,0.5,0],[0,0.75,0],[1,0.25,0],[1,0.5,0],[1,0.75,0]];outlineConnect=0;fontColor=#232F3E;gradientColor=#F78E04;gradientDirection=north;fillColor=#D05C17;strokeColor=#ffffff;dashed=0;verticalLabelPosition=bottom;verticalAlign=top;align=center;html=1;fontSize=12;fontStyle=0;aspect=fixed;shape=mxgraph.aws4.resourceIcon;resIcon=mxgraph.aws4.ec2;" parent="bmaizNyVz1rlYpIVx0_s-25" vertex="1">
          <mxGeometry x="14" y="97" width="65" height="65" as="geometry" />
        </mxCell>
        <mxCell id="dpVk5hDDHC6IQx6tJARt-13" value="" style="rounded=0;whiteSpace=wrap;html=1;shadow=1;fillColor=#fd7e08;" parent="bmaizNyVz1rlYpIVx0_s-25" vertex="1">
          <mxGeometry x="216" y="27" width="93" height="23" as="geometry" />
        </mxCell>
        <mxCell id="dpVk5hDDHC6IQx6tJARt-23" value="172.16.1.0" style="text;strokeColor=none;align=center;fillColor=none;html=1;verticalAlign=middle;whiteSpace=wrap;rounded=0;fontStyle=1;fontSize=14;fontColor=#ededed;" parent="bmaizNyVz1rlYpIVx0_s-25" vertex="1">
          <mxGeometry x="219.5" y="23.5" width="86" height="30" as="geometry" />
        </mxCell>
        <mxCell id="bmaizNyVz1rlYpIVx0_s-29" value="Virtual Private Cloud" style="text;strokeColor=none;align=center;fillColor=none;html=1;verticalAlign=middle;whiteSpace=wrap;rounded=0;fontStyle=1;fontColor=#30A618;fontSize=16;" parent="bmaizNyVz1rlYpIVx0_s-13" vertex="1">
          <mxGeometry x="65" y="3" width="164" height="30" as="geometry" />
        </mxCell>
        <mxCell id="bmaizNyVz1rlYpIVx0_s-34" value="Availability Zone 1" style="text;strokeColor=none;align=center;fillColor=none;html=1;verticalAlign=middle;whiteSpace=wrap;rounded=0;fontColor=#0b55ea;fontStyle=1" parent="bmaizNyVz1rlYpIVx0_s-13" vertex="1">
          <mxGeometry x="158" y="50" width="116" height="30" as="geometry" />
        </mxCell>
        <mxCell id="bmaizNyVz1rlYpIVx0_s-36" value="Availability Zone 2" style="text;strokeColor=none;align=center;fillColor=none;html=1;verticalAlign=middle;whiteSpace=wrap;rounded=0;fontColor=#0b55ea;fontStyle=1" parent="bmaizNyVz1rlYpIVx0_s-13" vertex="1">
          <mxGeometry x="532" y="50" width="116" height="30" as="geometry" />
        </mxCell>
        <mxCell id="dpVk5hDDHC6IQx6tJARt-64" style="edgeStyle=elbowEdgeStyle;rounded=0;orthogonalLoop=1;jettySize=auto;elbow=vertical;html=1;entryX=0;entryY=0;entryDx=0;entryDy=0;strokeWidth=2;" parent="bmaizNyVz1rlYpIVx0_s-13" source="bmaizNyVz1rlYpIVx0_s-37" target="dpVk5hDDHC6IQx6tJARt-22" edge="1">
          <mxGeometry relative="1" as="geometry" />
        </mxCell>
        <mxCell id="bmaizNyVz1rlYpIVx0_s-37" value="" style="sketch=0;points=[[0,0,0],[0.25,0,0],[0.5,0,0],[0.75,0,0],[1,0,0],[0,1,0],[0.25,1,0],[0.5,1,0],[0.75,1,0],[1,1,0],[0,0.25,0],[0,0.5,0],[0,0.75,0],[1,0.25,0],[1,0.5,0],[1,0.75,0]];outlineConnect=0;fontColor=#232F3E;gradientColor=#F78E04;gradientDirection=north;fillColor=#D05C17;strokeColor=#ffffff;dashed=0;verticalLabelPosition=bottom;verticalAlign=top;align=center;html=1;fontSize=12;fontStyle=0;aspect=fixed;shape=mxgraph.aws4.resourceIcon;resIcon=mxgraph.aws4.ec2;" parent="bmaizNyVz1rlYpIVx0_s-13" vertex="1">
          <mxGeometry x="469" y="123" width="58" height="58" as="geometry" />
        </mxCell>
        <mxCell id="dpVk5hDDHC6IQx6tJARt-63" style="edgeStyle=elbowEdgeStyle;rounded=0;orthogonalLoop=1;jettySize=auto;elbow=vertical;html=1;entryX=0;entryY=0.25;entryDx=0;entryDy=0;strokeWidth=2;" parent="bmaizNyVz1rlYpIVx0_s-13" source="bmaizNyVz1rlYpIVx0_s-33" target="dpVk5hDDHC6IQx6tJARt-21" edge="1">
          <mxGeometry relative="1" as="geometry" />
        </mxCell>
        <mxCell id="bmaizNyVz1rlYpIVx0_s-33" value="" style="outlineConnect=0;dashed=0;verticalLabelPosition=bottom;verticalAlign=top;align=center;html=1;shape=mxgraph.aws3.vpc_nat_gateway;fillColor=#F58534;gradientColor=none;" parent="bmaizNyVz1rlYpIVx0_s-13" vertex="1">
          <mxGeometry x="579" y="190" width="69" height="63" as="geometry" />
        </mxCell>
        <mxCell id="dpVk5hDDHC6IQx6tJARt-3" value="" style="rounded=0;whiteSpace=wrap;html=1;shadow=1;fillColor=#fd7e08;" parent="bmaizNyVz1rlYpIVx0_s-13" vertex="1">
          <mxGeometry x="300" y="80" width="93" height="23" as="geometry" />
        </mxCell>
        <mxCell id="dpVk5hDDHC6IQx6tJARt-8" value="172.16.0.0" style="text;strokeColor=none;align=center;fillColor=none;html=1;verticalAlign=middle;whiteSpace=wrap;rounded=0;fontStyle=1;fontSize=14;fontColor=#ededed;" parent="bmaizNyVz1rlYpIVx0_s-13" vertex="1">
          <mxGeometry x="313" y="76.5" width="60" height="30" as="geometry" />
        </mxCell>
        <mxCell id="dpVk5hDDHC6IQx6tJARt-57" style="edgeStyle=elbowEdgeStyle;rounded=0;orthogonalLoop=1;jettySize=auto;elbow=vertical;html=1;strokeWidth=2;" parent="bmaizNyVz1rlYpIVx0_s-13" source="dpVk5hDDHC6IQx6tJARt-7" target="bmaizNyVz1rlYpIVx0_s-32" edge="1">
          <mxGeometry relative="1" as="geometry" />
        </mxCell>
        <mxCell id="dpVk5hDDHC6IQx6tJARt-7" value="" style="rounded=0;whiteSpace=wrap;html=1;shadow=1;fillColor=#fd7e08;" parent="bmaizNyVz1rlYpIVx0_s-13" vertex="1">
          <mxGeometry x="300" y="108" width="93" height="23" as="geometry" />
        </mxCell>
        <mxCell id="dpVk5hDDHC6IQx6tJARt-5" value="172.16.1.0" style="text;strokeColor=none;align=center;fillColor=none;html=1;verticalAlign=middle;whiteSpace=wrap;rounded=0;fontStyle=1;fontSize=14;fontColor=#ededed;" parent="bmaizNyVz1rlYpIVx0_s-13" vertex="1">
          <mxGeometry x="313" y="103" width="60" height="30" as="geometry" />
        </mxCell>
        <mxCell id="dpVk5hDDHC6IQx6tJARt-10" value="route table" style="text;strokeColor=none;align=center;fillColor=none;html=1;verticalAlign=middle;whiteSpace=wrap;rounded=0;fontStyle=1" parent="bmaizNyVz1rlYpIVx0_s-13" vertex="1">
          <mxGeometry x="300" y="160" width="90" height="30" as="geometry" />
        </mxCell>
        <mxCell id="dpVk5hDDHC6IQx6tJARt-55" style="edgeStyle=elbowEdgeStyle;rounded=0;orthogonalLoop=1;jettySize=auto;elbow=vertical;html=1;entryX=0.5;entryY=0;entryDx=0;entryDy=0;endArrow=none;endFill=0;strokeWidth=2;dashed=1;" parent="bmaizNyVz1rlYpIVx0_s-13" source="bmaizNyVz1rlYpIVx0_s-32" target="dpVk5hDDHC6IQx6tJARt-29" edge="1">
          <mxGeometry relative="1" as="geometry" />
        </mxCell>
        <mxCell id="bmaizNyVz1rlYpIVx0_s-32" value="" style="outlineConnect=0;dashed=0;verticalLabelPosition=bottom;verticalAlign=top;align=center;html=1;shape=mxgraph.aws3.vpc_nat_gateway;fillColor=#F58534;gradientColor=none;" parent="bmaizNyVz1rlYpIVx0_s-13" vertex="1">
          <mxGeometry x="176" y="181" width="69" height="66" as="geometry" />
        </mxCell>
        <mxCell id="dpVk5hDDHC6IQx6tJARt-19" value="" style="rounded=0;whiteSpace=wrap;html=1;shadow=1;fillColor=#fd7e08;" parent="bmaizNyVz1rlYpIVx0_s-13" vertex="1">
          <mxGeometry x="300" y="137" width="93" height="23" as="geometry" />
        </mxCell>
        <mxCell id="dpVk5hDDHC6IQx6tJARt-18" value="172.16.2.0" style="text;strokeColor=none;align=center;fillColor=none;html=1;verticalAlign=middle;whiteSpace=wrap;rounded=0;fontStyle=1;fontSize=14;fontColor=#ededed;" parent="bmaizNyVz1rlYpIVx0_s-13" vertex="1">
          <mxGeometry x="300" y="133" width="86" height="30" as="geometry" />
        </mxCell>
        <mxCell id="dpVk5hDDHC6IQx6tJARt-15" value="" style="rounded=0;whiteSpace=wrap;html=1;shadow=1;fillColor=#fd7e08;" parent="bmaizNyVz1rlYpIVx0_s-13" vertex="1">
          <mxGeometry x="678" y="76.5" width="93" height="23" as="geometry" />
        </mxCell>
        <mxCell id="dpVk5hDDHC6IQx6tJARt-17" value="" style="rounded=0;whiteSpace=wrap;html=1;shadow=1;fillColor=#fd7e08;" parent="bmaizNyVz1rlYpIVx0_s-13" vertex="1">
          <mxGeometry x="678" y="131" width="93" height="23" as="geometry" />
        </mxCell>
        <mxCell id="dpVk5hDDHC6IQx6tJARt-22" value="172.16.0.0" style="text;strokeColor=none;align=center;fillColor=none;html=1;verticalAlign=middle;whiteSpace=wrap;rounded=0;fontStyle=1;fontSize=14;fontColor=#ededed;" parent="bmaizNyVz1rlYpIVx0_s-13" vertex="1">
          <mxGeometry x="681.5" y="73" width="86" height="30" as="geometry" />
        </mxCell>
        <mxCell id="dpVk5hDDHC6IQx6tJARt-25" value="" style="rounded=0;whiteSpace=wrap;html=1;shadow=1;fillColor=#fd7e08;" parent="bmaizNyVz1rlYpIVx0_s-13" vertex="1">
          <mxGeometry x="303" y="325" width="93" height="23" as="geometry" />
        </mxCell>
        <mxCell id="dpVk5hDDHC6IQx6tJARt-26" value="" style="rounded=0;whiteSpace=wrap;html=1;shadow=1;fillColor=#fd7e08;" parent="bmaizNyVz1rlYpIVx0_s-13" vertex="1">
          <mxGeometry x="303" y="354" width="93" height="23" as="geometry" />
        </mxCell>
        <mxCell id="dpVk5hDDHC6IQx6tJARt-27" value="" style="rounded=0;whiteSpace=wrap;html=1;shadow=1;fillColor=#fd7e08;" parent="bmaizNyVz1rlYpIVx0_s-13" vertex="1">
          <mxGeometry x="303" y="383" width="93" height="23" as="geometry" />
        </mxCell>
        <mxCell id="dpVk5hDDHC6IQx6tJARt-6" value="" style="rounded=0;whiteSpace=wrap;html=1;shadow=1;fillColor=#fd7e08;" parent="bmaizNyVz1rlYpIVx0_s-13" vertex="1">
          <mxGeometry x="678" y="321" width="93" height="23" as="geometry" />
        </mxCell>
        <mxCell id="dpVk5hDDHC6IQx6tJARt-14" value="" style="rounded=0;whiteSpace=wrap;html=1;shadow=1;fillColor=#fd7e08;" parent="bmaizNyVz1rlYpIVx0_s-13" vertex="1">
          <mxGeometry x="678" y="374" width="93" height="23" as="geometry" />
        </mxCell>
        <mxCell id="dpVk5hDDHC6IQx6tJARt-31" value="172.16.1.0" style="text;strokeColor=none;align=center;fillColor=none;html=1;verticalAlign=middle;whiteSpace=wrap;rounded=0;fontStyle=1;fontSize=14;fontColor=#ededed;" parent="bmaizNyVz1rlYpIVx0_s-13" vertex="1">
          <mxGeometry x="681.5" y="97" width="86" height="30" as="geometry" />
        </mxCell>
        <mxCell id="dpVk5hDDHC6IQx6tJARt-32" value="172.16.2.0" style="text;strokeColor=none;align=center;fillColor=none;html=1;verticalAlign=middle;whiteSpace=wrap;rounded=0;fontStyle=1;fontSize=14;fontColor=#ededed;" parent="bmaizNyVz1rlYpIVx0_s-13" vertex="1">
          <mxGeometry x="681.5" y="124" width="86" height="30" as="geometry" />
        </mxCell>
        <mxCell id="dpVk5hDDHC6IQx6tJARt-21" value="route table" style="text;strokeColor=none;align=center;fillColor=none;html=1;verticalAlign=middle;whiteSpace=wrap;rounded=0;fontStyle=1" parent="bmaizNyVz1rlYpIVx0_s-13" vertex="1">
          <mxGeometry x="677.5" y="151" width="90" height="30" as="geometry" />
        </mxCell>
        <mxCell id="dpVk5hDDHC6IQx6tJARt-30" value="172.16.0.0&lt;br&gt;" style="text;strokeColor=none;align=center;fillColor=none;html=1;verticalAlign=middle;whiteSpace=wrap;rounded=0;fontStyle=1;fontSize=14;fontColor=#ededed;" parent="bmaizNyVz1rlYpIVx0_s-13" vertex="1">
          <mxGeometry x="679.5" y="317.5" width="86" height="30" as="geometry" />
        </mxCell>
        <mxCell id="dpVk5hDDHC6IQx6tJARt-24" value="172.16.2.0" style="text;strokeColor=none;align=center;fillColor=none;html=1;verticalAlign=middle;whiteSpace=wrap;rounded=0;fontStyle=1;fontSize=14;fontColor=#ededed;" parent="bmaizNyVz1rlYpIVx0_s-13" vertex="1">
          <mxGeometry x="681.5" y="370.5" width="86" height="30" as="geometry" />
        </mxCell>
        <mxCell id="dpVk5hDDHC6IQx6tJARt-59" style="edgeStyle=elbowEdgeStyle;rounded=0;orthogonalLoop=1;jettySize=auto;elbow=vertical;html=1;entryX=1;entryY=0.75;entryDx=0;entryDy=0;entryPerimeter=0;endArrow=none;endFill=0;strokeWidth=2;" parent="bmaizNyVz1rlYpIVx0_s-13" source="dpVk5hDDHC6IQx6tJARt-33" target="bmaizNyVz1rlYpIVx0_s-30" edge="1">
          <mxGeometry relative="1" as="geometry" />
        </mxCell>
        <mxCell id="dpVk5hDDHC6IQx6tJARt-33" value="route table" style="text;strokeColor=none;align=center;fillColor=none;html=1;verticalAlign=middle;whiteSpace=wrap;rounded=0;fontStyle=1" parent="bmaizNyVz1rlYpIVx0_s-13" vertex="1">
          <mxGeometry x="679.5" y="394" width="90" height="30" as="geometry" />
        </mxCell>
        <mxCell id="dpVk5hDDHC6IQx6tJARt-29" value="172.16.0.0" style="text;strokeColor=none;align=center;fillColor=none;html=1;verticalAlign=middle;whiteSpace=wrap;rounded=0;fontStyle=1;fontSize=14;fontColor=#ededed;" parent="bmaizNyVz1rlYpIVx0_s-13" vertex="1">
          <mxGeometry x="303.5" y="321" width="86" height="30" as="geometry" />
        </mxCell>
        <mxCell id="dpVk5hDDHC6IQx6tJARt-28" value="172.16.1.0" style="text;strokeColor=none;align=center;fillColor=none;html=1;verticalAlign=middle;whiteSpace=wrap;rounded=0;fontStyle=1;fontSize=14;fontColor=#ededed;" parent="bmaizNyVz1rlYpIVx0_s-13" vertex="1">
          <mxGeometry x="303.5" y="350.5" width="86" height="30" as="geometry" />
        </mxCell>
        <mxCell id="bmaizNyVz1rlYpIVx0_s-8" value="172.16.2.0" style="text;strokeColor=none;align=center;fillColor=none;html=1;verticalAlign=middle;whiteSpace=wrap;rounded=0;fontStyle=1;fontSize=14;fontColor=#ededed;" parent="bmaizNyVz1rlYpIVx0_s-13" vertex="1">
          <mxGeometry x="303.5" y="377" width="86" height="30" as="geometry" />
        </mxCell>
        <mxCell id="dpVk5hDDHC6IQx6tJARt-34" value="NAT Gateway" style="text;strokeColor=none;align=center;fillColor=none;html=1;verticalAlign=middle;whiteSpace=wrap;rounded=0;fontStyle=1" parent="bmaizNyVz1rlYpIVx0_s-13" vertex="1">
          <mxGeometry x="147" y="250" width="127" height="30" as="geometry" />
        </mxCell>
        <mxCell id="dpVk5hDDHC6IQx6tJARt-35" value="NAT Gateway" style="text;strokeColor=none;align=center;fillColor=none;html=1;verticalAlign=middle;whiteSpace=wrap;rounded=0;fontStyle=1" parent="bmaizNyVz1rlYpIVx0_s-13" vertex="1">
          <mxGeometry x="550" y="253" width="127" height="30" as="geometry" />
        </mxCell>
        <mxCell id="dpVk5hDDHC6IQx6tJARt-53" style="edgeStyle=elbowEdgeStyle;rounded=0;orthogonalLoop=1;jettySize=auto;elbow=vertical;html=1;entryX=0;entryY=0.5;entryDx=0;entryDy=0;strokeWidth=2;" parent="bmaizNyVz1rlYpIVx0_s-13" source="bmaizNyVz1rlYpIVx0_s-31" target="dpVk5hDDHC6IQx6tJARt-28" edge="1">
          <mxGeometry relative="1" as="geometry">
            <Array as="points">
              <mxPoint x="221" y="370" />
            </Array>
          </mxGeometry>
        </mxCell>
        <mxCell id="bmaizNyVz1rlYpIVx0_s-31" value="" style="sketch=0;points=[[0,0,0],[0.25,0,0],[0.5,0,0],[0.75,0,0],[1,0,0],[0,1,0],[0.25,1,0],[0.5,1,0],[0.75,1,0],[1,1,0],[0,0.25,0],[0,0.5,0],[0,0.75,0],[1,0.25,0],[1,0.5,0],[1,0.75,0]];outlineConnect=0;fontColor=#232F3E;gradientColor=#F78E04;gradientDirection=north;fillColor=#D05C17;strokeColor=#ffffff;dashed=0;verticalLabelPosition=bottom;verticalAlign=top;align=center;html=1;fontSize=12;fontStyle=0;aspect=fixed;shape=mxgraph.aws4.resourceIcon;resIcon=mxgraph.aws4.ec2;" parent="bmaizNyVz1rlYpIVx0_s-13" vertex="1">
          <mxGeometry x="96" y="416" width="67" height="67" as="geometry" />
        </mxCell>
        <mxCell id="dpVk5hDDHC6IQx6tJARt-11" value="&lt;font style=&quot;font-size: 14px;&quot;&gt;&lt;b&gt;Amazon EC2&lt;/b&gt;&lt;/font&gt;" style="text;strokeColor=none;align=center;fillColor=none;html=1;verticalAlign=middle;whiteSpace=wrap;rounded=0;" parent="bmaizNyVz1rlYpIVx0_s-13" vertex="1">
          <mxGeometry x="454" y="480" width="117" height="30" as="geometry" />
        </mxCell>
        <mxCell id="dpVk5hDDHC6IQx6tJARt-48" value="&lt;b&gt;Internet Gateway&lt;/b&gt;" style="text;html=1;align=center;verticalAlign=middle;resizable=0;points=[];autosize=1;strokeColor=none;fillColor=none;" parent="bmaizNyVz1rlYpIVx0_s-13" vertex="1">
          <mxGeometry x="378" y="27" width="115" height="26" as="geometry" />
        </mxCell>
        <mxCell id="dpVk5hDDHC6IQx6tJARt-54" style="edgeStyle=elbowEdgeStyle;rounded=0;orthogonalLoop=1;jettySize=auto;elbow=vertical;html=1;entryX=0.5;entryY=0;entryDx=0;entryDy=0;" parent="bmaizNyVz1rlYpIVx0_s-13" source="dpVk5hDDHC6IQx6tJARt-29" target="dpVk5hDDHC6IQx6tJARt-29" edge="1">
          <mxGeometry relative="1" as="geometry" />
        </mxCell>
        <mxCell id="dpVk5hDDHC6IQx6tJARt-61" style="edgeStyle=elbowEdgeStyle;rounded=0;orthogonalLoop=1;jettySize=auto;elbow=vertical;html=1;entryX=0.5;entryY=1;entryDx=0;entryDy=0;entryPerimeter=0;strokeWidth=2;dashed=1;" parent="bmaizNyVz1rlYpIVx0_s-13" source="dpVk5hDDHC6IQx6tJARt-23" target="bmaizNyVz1rlYpIVx0_s-33" edge="1">
          <mxGeometry relative="1" as="geometry" />
        </mxCell>
        <mxCell id="dpVk5hDDHC6IQx6tJARt-65" style="edgeStyle=elbowEdgeStyle;rounded=0;orthogonalLoop=1;jettySize=auto;elbow=vertical;html=1;entryX=0.55;entryY=1.039;entryDx=0;entryDy=0;entryPerimeter=0;strokeWidth=2;" parent="bmaizNyVz1rlYpIVx0_s-13" source="bmaizNyVz1rlYpIVx0_s-30" target="dpVk5hDDHC6IQx6tJARt-36" edge="1">
          <mxGeometry relative="1" as="geometry" />
        </mxCell>
        <mxCell id="bmaizNyVz1rlYpIVx0_s-28" value="" style="ellipse;shape=cloud;whiteSpace=wrap;html=1;strokeColor=#FF601C;fillColor=#FF7A14;" parent="bmaizNyVz1rlYpIVx0_s-12" vertex="1">
          <mxGeometry x="385" y="17" width="120" height="80" as="geometry" />
        </mxCell>
        <mxCell id="dpVk5hDDHC6IQx6tJARt-2" value="" style="shape=image;verticalLabelPosition=bottom;labelBackgroundColor=default;verticalAlign=top;aspect=fixed;imageAspect=0;image=data:image/png,iVBORw0KGgoAAAANSUhEUgAAAMgAAADICAMAAACahl6sAAAAM1BMVEX///8AAAC/v7/v7+9/f39AQEAQEBAgICDf399gYGCfn58wMDCvr6/Pz8+Pj49QUFBwcHAv3NgaAAAIwklEQVR4nO1d2aKkKAztct+t///aEdRA2CQUqNPNebu3XDiQjRDwz5+MjIyMjIyMjIyMjIyMl6MrdjzdjmDMU7XWzUdGXVdLUT7dMALK6Vt/rGj7oXu6hT7oltFOAsh8p6fb6YYXix1NPz/dWium1ZfFMS7LGxWmHFoajX1Y3qYuZdVcN9uId1EZQmlwKq8RsCJAqGQ01dMMOEqiipvQvsDxT79IlcD3YfmKMRw72kfdyvyjdiAsz/EYItLYsD4lXn1cHp/P+IhPKR0RbiiaBxSl9A4PSUxuj4rT8Ngw/CU8bmaSkMetTJLy+Hzu0/i0PO6zXdH9h4r2Hs+4pOaxecY7eBTpeWzBcHoeJTlsHws2FSbelN4xkgOTer+PGGA2qcMuuoKcLSL2QJ2WR0cWLGgQNeZPOz2hR7xC2Il9kFS4JjKPVtxM1fc1HY+SPrOVMj0d9d50qRVqn26QfTQ1UdFaG/Ij6C7k08v3k11pqjg4IMbC0kGVzERDQpZxrSVkJ5RmSAI0RGlISb0/yZAEaEijhuNk4UwxJAHRe68+Y6Y+IUWgEpAdBd8MOk+eW8afLAZMQ6A7J5gokZOs2qD+jADbCwK+io6lKloTnQhd1cHkdFLHfqlPiT3DooeLIsyqJPtFdkaxZStAskDVmZmQxIyG2LL1Q5jFB7NFf1EQV7bIDkAKs1b8J9WMx02o0MMTWdUZYICojjVujos+xQWlOPvgVHdywBU17UhWERFmnaIEyQSq3YipJHQVwarO0IY+LGZdBH35FmyvMLehAVfMwJGs6/ByyQHCIBG7JeakhKzrmqozgNoQNS4iEWr0LTpR9hog7MSAK2JaiMhDNBn5cdW13E+EbPoNqs4AhpQmqvHMFnVSBWqtdD0kQWkB13NEQBZUa4cCYm/Ei+SJRISqq0ZCnqL4I54jIcZ5YmVDLbwBiiSti0eE5g9RNkuxtKDulIDrKSJYpHElLag7RVqfIqKkomakKKDuBB/7EBHttaiAE9SdEHA9RMSQrpXuh1wCIZUcjwglXDVmPaTiYODpH3DFI0LRTJCdTh6aDlTCFOC/kghoc4XyH2WvXeAdcMXLoxCIiDXlLQqpZY9yelVolnfAFXGu608Ewqw9LSeb4nlXFKFEvgFXxBoIbx4izNptLip/PSoIjbNHr875Hd7iDJ0HqozkgisKWd0jLvb4Zp5FmCV6G1W884AF1N0z4IrHw1sIRJglyf+IFKWVrvIzIjFzpr4GZjbegBWlNmQhnYhZXOMpzcJzKbKI7E4l1N0rZIi6A8vPUkIDNeJoZ9sEhL0CrqhFQl7aLjyErlNoa8gMtHzUPSYPv8mukAHDADbGjvWQ2bg1A15KAp1utg1GB33toSJvUvRQEmFdLIJoSutcq3vk2geP2QMYWevwjYbFp6seil0gdL06I95oVyjDPoQrXxu9huNSthavS7WJ8JX2Ra/QvJQtEBt34KH1sNsCxy89u+o50cAL36Aqipt3go3VF4YSpP8yG6ruynUKbYJybLehFCHqte9ssKK4bkhSje3sucHvsgMoneAS2iTF2K6eE2GW3xwDpSUcl6Xg4QxVRRd7zvokRXEoVaJSbIfvAp30XvgQsy278qXaM2bfrCB0krAmdFjW2T7QybYrWPturU5QFgdrtovMcRJJwt1JibeEKki4QfSWPYgnku5FJFe7hiPtPteAzUmhSLyl8jbhil9LruAm4bphA/U9luuGLe30zaEBuOXUmoAyeSqSK8iO5Dvzb9mXz5D4rART1uj/yOTWc3cSnBv0CI+EJ6PcfQ5SmUi6HjjPKQmTRw5wSxCs3GivZEQ+ue3Boycd0+0QPHjuZMzj28xrc7chWrjy2JGAJ+YoHuX+s+cMWH7XlMeHY0f3o0sZX3Ak64HiB6Vvbz4H8AKhVF5Gg6EIELDxfTQYOlLmd3Pk79ENDVPva8LW4R2Wyo7pe+lZmv71LHZ0jo8rjP3y3iP8jeiKqqprGJ22rvtqerFWZGRkZGRkZGRk/MuYTNPQQf6n/im6suAlQoP6RTf1yvL4kl2hRfSl4X/wlIE/faJ9L64w1a9NqNTlo2yJkNdMGlQSo14ppsTql6wKW3UT+sAUJUvcmxZXWQ2dyAkqzcOrWE4iaLqIRsBGBD+ckLPgJX3aNIgREScjK81btt/22V9RVCvKgepExl20WJYSFVvbiPTsK1G8PZvwVYRqYF6/qK3b8//CaozSvNpe0aMTOVvLKj7l/rIRMXWrF9pP2+tndO3lmSc/nYjtXXYibN1LlngLkTm0imDT6qrQlWojsjYgokrzvvZktJsIsoRmIl0okZpVwLbaXoGNSMVKUWZT81hFtSUf7RCtFte/20SrDROtjlfALprQMyKsD/dqKrV5fE2xNr3PSoStriD7ZiMyMWWnJ8O+nEKpPZQTYRVbq6l5x6KPIaGrE2lqhkazKFY/IqqnW3+bxUwJk55e3fawE2E/VyYi26BwV6el2J1+BNVmWf2ItBjuL2NcRhb+VFyzuhPhhY2Fkch2Lx+VGneATqQ9Cp5HxXfaiLDM5fjltxCK0ranN3zVu1VOgz6IcN9XmokcSyXYXzuslrAdLiJD0Krv9rCVbdceu0WJBk4ibKfhaCOynx6CDJ6DiOJILETWoJ0LPVN1toTeDA0230CEWc2vlQivJJCHxEUEN91CxOFs7SiP7mQNVQKISt1jYHuG8mIXkQUZLjsR+gI2tHZAAQn66fxRvk/Sb2bXZHV3EGFjK0mNhcgSUnAjfO3e7dIDJCJ7mRO6r+0HPgwdM8KoOdbot2BGTlanQvy0AV7NeqY9vlk9e0a/k7Svhc8CJHMnE+GVzNJ9eM8X/gyKy49gA4dL1oV44k+Tek2ssDj2diIdtgTlIq1SKQVLKhG5VXiKiLtD0jNUleC1I0OZX0/yB6K7opBeO2tDXCxVVW+zalWc1Tl7J6RHfb30U4En5+VUVf3KMgI+NDIyMjIyMjIyMjIyMjIyMjJi4j+9OlBDE1PPcAAAAABJRU5ErkJggg==;" parent="1" vertex="1">
          <mxGeometry x="469" y="-36" width="67" height="67" as="geometry" />
        </mxCell>
        <mxCell id="dpVk5hDDHC6IQx6tJARt-4" value="VARS" style="text;strokeColor=none;align=center;fillColor=none;html=1;verticalAlign=middle;whiteSpace=wrap;rounded=0;fontStyle=1;fontSize=14;" parent="1" vertex="1">
          <mxGeometry x="-94" y="225.5" width="60" height="30" as="geometry" />
        </mxCell>
        <mxCell id="dpVk5hDDHC6IQx6tJARt-45" style="edgeStyle=elbowEdgeStyle;rounded=0;orthogonalLoop=1;jettySize=auto;elbow=vertical;html=1;strokeWidth=3;" parent="1" source="dpVk5hDDHC6IQx6tJARt-38" target="bmaizNyVz1rlYpIVx0_s-12" edge="1">
          <mxGeometry relative="1" as="geometry" />
        </mxCell>
        <mxCell id="dpVk5hDDHC6IQx6tJARt-38" value="&lt;font color=&quot;#f7f7f7&quot;&gt;&lt;b&gt;API&lt;/b&gt;&lt;/font&gt;" style="rounded=0;whiteSpace=wrap;html=1;fillColor=#131111;" parent="1" vertex="1">
          <mxGeometry x="296" y="355.5" width="53" height="26" as="geometry" />
        </mxCell>
        <mxCell id="RNjDBzpZkA36m-AFM5lV-1" value="" style="shape=image;verticalLabelPosition=bottom;labelBackgroundColor=default;verticalAlign=top;aspect=fixed;imageAspect=0;image=data:image/jpeg,/9j/4AAQSkZJRgABAQAAAQABAAD/2wCEAAkGBxISEhESEBIVFRUXFRcTFRIVFxUWFRYWFRUWFxUWGBgaHSghGhslHRUWITEhJSkrLi4uFx8zODMtNygtLisBCgoKDg0NGxAQGjEhHyU3Ny04NS0rLS00ODctNzI1LTA3NS0tLzcrNy0tLS0rLTcyKzIxKy0vLTIrNTc3LC0uLf/AABEIAOEA4QMBIgACEQEDEQH/xAAbAAEAAgMBAQAAAAAAAAAAAAAABQYDBAcBAv/EAEAQAAIBAwIDBAcFBwEJAQAAAAABAgMEEQUhBhIxB0FhcRMiNFFzgbEUMnKRsiMzNUJiocHhFVJTY3Sz0fDxJP/EABoBAQACAwEAAAAAAAAAAAAAAAACBQEEBgP/xAAuEQEAAgECAwUGBwAAAAAAAAAAAQIDBBESITEyM0FRcQUUIpGx4RMjNFKBwdH/2gAMAwEAAhEDEQA/AO4gAAAAAAAAAAAAAAAAMide4jtrOLlXqJPG0FvOXkgJYFb4b41tLzanPkn/AMKe0vl3MsgAAAAAAAAAAAAAAAAAAAAAAAAAAAAAAAPipUUU3JpJbtvZID7NTUdRpUIOpWnGEV3yeP8A6UriLtHpwl6Gxg7iq9k47wT8MbyI/T+CLy+kq+q1pJdVQT3x7vdD5bgfeqcfXF1N2+k0ZSfR1munik9o+bNjQuzjM/T6lUdeq9+TOYp9cSf839kXfStKo20FChTjCP8ASt34t9WzeAo/EnZzbV/Xt/8A89VbpwXqNrpmK6eaIK24m1HS5KlqFKVaj0jWW7x4S6Pye51Uw3VtCpFwqRjOL2cZJNP5MDQ0TiC3u481vUUvfHpKPnF7olUc51vs5lCfp9MqujUW6p5ai/BS7vLoYdJ7Qa1vNW+q0pU5dPS4xnxa714oDpgNeyvqdaCqUpxnF9JRaaNgAAAAAAAAAAAAAAAAAAAAAAHjZivLhU6c6jy1GLk0uuEsnH73jK61Osra3nC2pyeMylyykvGXv8EBeeKOPLW0zBP0tXoqcN8Pu5n0RVKel6nq7UrmX2e2e6gtsrwj1fnItPC/AVtaYnJemq9fSTWUn/Su7z6luwBC8PcLW1nHFCHrd9SW838+7yRNoAAAY61VRWW8Ixa0VjeSI3ZAYKFzGf3XkzmKXreN6zvDMxMcpeM0dW0ehcwdOvTjOPj1Xin1TN8EmHLb7gy9sJutpVWU49ZUJYbx7sPaS/uS3DfaPSqP0V5H7PWWzymoN/PeL8y94ILiXhO1vY/toYnjarHaa+ff5MCbhUTSaeU901uj7OMXV7d6JVVONxCvSfSlJ7peMesH4rY6jwxrcb23hXjFxUm1yvDw08PddQJYAAAAAAAAAAAAAAAAAAaGvezXHwp/pZyrgfguhf2MpTzCqqklGpHyWE13o6rr3s1x8Kf6WVDsZ9hn8WX0QEJDUNU0dqNeP2i2zhTznC8H1j5PYvfDfFdrerNGp6/fSltNfJ9fNE3VpKSakk09mmk0/NFE4k7N6c261jP7PWW6UcqDfhhpw+QF9yeOaXU0dLoVKdCEKk3UqKKUpye7l35aI69q1G8TyvDu/wBTR1utjTV32mfp83rixcc9W9c6mltDd+/u/wBSMq1ZSeZPJ8A5bU63LqJ+OeXl4LHHirTo9jJp5W3kSFtqb6T/ADX+SOBDT6rLgnek/wCM3x1vHNZaVVSWU8n3krdvUmn6mc+5d/yJyk5OPreq2u7u8fM6jQ6/3mNprtMfJX5sP4fi19Z1qhawdS4qKC7u9vwSW7OeXnGF9qM3R0yk4Q6SrS2kl78vaP8AdkjbdnTrV51tQuJ1lzvkp5f3c+rzPu2xski92djToxUKMIwiukYpJf2LJ4OaXXZ7Tt7O5uLibrV/Ryllv1Yy9672/Fli7Jv4dS/HP9RLca+wXfwpfQieyb+HUvxz/UBcQAAAAAAAAAAAAAAAAABoa97NcfCn+llQ7GfYZ/Fl9EW/XvZrj4U/0sqHYz7DP4svogL8AAIzWJuPI4vDy+hhpX8ZLlqr5mTW/wCT5kWcvr9Tkw6u3DPLlynp0hYYcdbY43b1fT9uam8r3Gk01s9j7o15QeYv5dxvwr06u01iXRM1uDBqOx8FvKek+k+CfFfH15wjDbt7CUt5eqvHqbMo06P9Uv8A38jSuLuU+uy9yMzgw6fvp4rftj+5OO1+xyjzbcrmnT2prL9/+p82FeU6mZPOzI83NK/eLyZLBq8mXUUr0rvHKOUMXxRWkz4pzB6AdcrUJxr7Dd/Cl9CJ7Jv4dS/HP9RLca+w3fwpfQieyb+HUvxz/UBcQAAAAAAAAAAAAAAAAABoa97NcfCn+llQ7GfYZ/Fl9EW/XvZrj4U/0sqHYz7DP4svogL8AAIrW/5PmRZL61BtRaWcZyRByHtaJ96t/H0Wem7uAyW334fiX1MZltfvw/FH6o0MXeV9Xrfsyzat+8fkjUNzVv3nyRpntrv1N/WUcPdwG5pX7xeTNM3tJg+fONsPcloImdTTbzM0/lymwAdsqUJxr7Dd/Cl9CJ7Jv4dS/HP9RLca+w3fwpfQieyb+HUvxz/UBcQAAAAAAAAAAAAAAAAABoa97NcfCn+llQ7GfYZ/Fl9EXHWoOVvXjFZbpzSS6tuLwjmnZhxNQtYStLrNGp6RtOouWO+Fh5+68rvA6wD4hUTSaeU+jXRn2B40aN1psZbr1X4dPmjfB5ZsGPNXhvG6VbzWd4Vuvbyh95eT7jy2+/D8UfqWKUE9nuaNTTUpRlDbDTa+fcUGb2PbHeLYp3jfp4/duV1MTG1mnq37z5I1adNyeIrJL3Fjzz5m9sLZddjcpUYxWIrBO3sq+bUXvflXefWWI1EVpERzloWulpbz3fu7iSjHCwEj0udPpsWCu1I2at8lrzvIAeNmwgheNfYbv4UvoRPZN/DqX45/qNXtB4vtYUK1tGfpKs4uHLBqXK3/ALzXTy6m92X286en0o1Iyi+abxJNPDls8MC2gAAAAAAAAAAAAAAAAAAyC4j4Utb2P7amuf8AlqR2mvmuvkydAHJ5WGqaQ+ajL7RbJ7w3eF4rGY+aeC3cMcdWt5iKl6Or30p4Tb/pfR/UtRTeKOz62uszgvQ1uvPDo3/VH/K3AuKPTlFLXtS0pqnewdeh0VVbte7E/wDDL/w/xHbXkeahUTffB7Tj5xAmCN4kuJU7W5qQeJQo1JRls8SjBtPfbqiRyRXFvsN5/wBPV/7cgIvs41atdWarXEuabqTWcKOyeEsLYtRR+x/+HR+LU/UXfIHoNPU9To28HUr1Iwiu9vr4Jd7OeajxzdXs3Q0mjLHR1pLdeK7orxe4F14h4ntrKOa8/W7qccOcvJf5ZQquranq7cLWLt7bo5vbK8ZYy/KJLcP9m0Iy9Nfz9PVe7Tb5M+PfIv1KmopRikklhJbJfICqcMcBW1picl6Wr31J74f9MeiLaonoAAAAAAAAAAAAAAAAAAAAAAAAAx1qEZxcZpST2aaymvFHP9e7OEpen06o6FVbqGWoN+D6x+h0Q8wBzLS+Pbi0mrfVqMk1sq0V/dpbSXii3a7qNKvp93UozjOLt6uJRf8Ay5dfcSeq6XRuIOnXpxnH3NJ48U+5nNtd7Pri2VWem1ZuE4yjOg3huLTTj7pbPG+4E32SVYx01Sk0kqlRtt4S9Y1+Ie0iPN6DTqbr1XspJPkT8F1l9CtcNcD31xTjTuJzoWyk5ejfWTb39X892dQ4f4btrOPLQppPvm95y85AUjS+A7m8mrjVq0n3qjFrKXueNorwX5nRNP02lQgqdGEYRXRRX195tgAAAAAAAAAAAAAAAAAAAAAAAAAAzkvaUq1XVbC1p3FWjGrDlbpyax6z3x0bA61k8yczq9mt3BOVDV7nnW8ef7ufHDNvsk4muLqFzRu3z1Leag6uEubeSecJJtOL3A6EDBd3lOlFzqzjCK6yk1FL5sjtP4osq8uSjc0py/3Yzi2/Jd4EwCP1y/jRoVakpxp4jLllJpLm5Xy4z35KV2XcYqrZ81/d03V9LNftJU4S5duXbbb5AdFBio3EZxU4SUovdSTTTXvTIm44usIT9HO7oKWcNOpHZ+O+wE2D4o1YzSlFpp7pp5TPsAeZNLXKVWdvWjby5KrhJU5v+WbXqv5M59S7K6lRc13qVzOq+rg8RT8MgdOyenJeFbu70/VlplavK4ozhzQct5RyuZP3rpJNeJ1oAAAAAAAAAAAAAAAAAAABx3tQnXjrOnO1jGVZQzTjLaLlzPZ+B2FnJ+Pa0Ya9pU5yUYqOXJvCS5n1b6AZ7++4mlTlFW1vDKa5oSTkvLmeMn12R6jb0nVsJUqlG8TdSsqjTdWXe0/Dm6eJeqvEtlFNyuqKS7/SR/8AJzXSbqOo8QfarRN0aNPlnWw0pNJrbPvzt5AZNRt/9sa1Vta0pfZbSGXTTaU5+ru8eMsfIl+MeziydrUna0VQrUoOpTnTclvBN4e/h16kRaXMdN4guftD5aV3DMKj+7l8r3fnFr8i4cdcT29tZV5OrBylTlCnGMk3KU1hYS8wIfh24hqui5vIekcIzUs5WZ0U+Wez8Eyv9kvBtjeWPpbq3jUn6WceZymtotYXqtIsvZnpFSjo/JNNTqxq1OV9f2ifL/bBGdh+qUYWVWjUqRhUhWm5Rk1FpS79/JgZ+1S8lZ2drY2X7P01RUI4b9Wn0wm9924rPuySmn9mOm06CpTt41JYxKrJy52+95zt8iG7aKMpUbK9oftI0K8Zycd1y9VLK7sxS+Zd9N4kta1GNeFenyOPM25JOO26afRoCi9ndSdjqV3pLm5UUnWo8zy4r1XjPk/zXidTRyfgip9u1u8v6efQQh6GE+6TxFLHyTfk0dYA8ZWONLjU4Kn/ALMpUp55vSOo9105eXffvJrWdUpWtGdevLlpxxzSw3jLSzhb95itdetKkOeFxSccZ5lOPQDnXZ3WpPUKzv8A0q1Nxw1VUVDk22pcrx0S/udYOO6jfQ1DiC0dm+eNvH9pVj93CznfvWZJfmdiAAAAAAAAAAAAAAAAAAAAV/iDgyyvpxqXVL0kox5U8yXq5zjZlgAFLh2V6Snn7KvnKT/yWfTNKo20FTt6cacF/LBJLzfvZugCJ17hy2vYejuqUai6pv70X74vqiB03sv02jNVFRc2nmKqSc0vds9i6AD5jHBUtV7NtNuKkqtShiUnmThJwUm+raXeW8AaVrpVGnQjbxgvRRjyKD9ZcvueepU6/ZPpcp83opRXVwjOSh+ReQBpaVpVG2pqlb0404LpGKx5t+9+JugAa2oWNOvTlSrQU4SWJQkspoptfsk0uUsqlOP9MaklH8i9gCI0Dhq1soOFrSjTT+81vKXnJ7slwAAAAAAAAAAAAAAAAAAAAAAAAAAAAAAAAAAAAAAAAAAAAAAAAAAAAAAAAAAAAAAAAAAAAAAAAAAAAAAAAAAAAAAAAAAAAAAAAAAAAAAAAAAAAAAAAAAAAAAAAAAAAAAAAAAAA//Z;" parent="1" vertex="1">
          <mxGeometry x="552" y="-36" width="74" height="74" as="geometry" />
        </mxCell>
        <mxCell id="4vAWXHapJVL0WqVgZi3j-3" value="" style="shape=image;verticalLabelPosition=bottom;labelBackgroundColor=default;verticalAlign=top;aspect=fixed;imageAspect=0;image=data:image/jpeg,/9j/4AAQSkZJRgABAQAAAQABAAD/2wCEAAkGBxIHBhMSBxAQFhUVFhgVGRgXFxkYFRkTFxYdGhUTFRUaHSggIR0mHRYTIzEhJTU3LzouGSAzODMsOCgtLjcBCgoKDg0OGxAQGi0mICUvLS0wNTUtLTUuLy0tLS4tLTA2Ly0tLS0wLy0tLS0tLTctLS0tMC0tLS0tLS4tLS0vK//AABEIAOEA4QMBEQACEQEDEQH/xAAbAAEAAwEBAQEAAAAAAAAAAAAABQYHBAMCAf/EAD0QAAIBAgMFAwgHCAMAAAAAAAABAgMRBAUGITFBUWESInEyNVJzgZGy8AcTYqGxwcIUJCU0NkJy0SaCov/EABoBAQACAwEAAAAAAAAAAAAAAAAEBQECAwb/xAAwEQEAAgEDAgUCBQQDAQAAAAAAAQIDBBEhBTESIjNRcbHBQWGR0eETMqHwIzRDQv/aAAwDAQACEQMRAD8A3EAAAAAAAAAAAAAAAAAAAAAAAAAAAAAAAAAAAAAAAAAAAAAAAAAAAAAAAAAAAAAAAAAAAAAAAAAAAAAAAAAAAAAAAAAAAAAAAAAAAAAAAAAAAAAAAAAAAAAAAAAAAAAAAAAAAAAAAAAAAAAAAAAAAAAAAAAAAAAAAAAAAAAAAAAAAAAAAAAAAAAAAAAAAAHJjczo4FpYqpCLe5N7X7N50pivf+2HLJmpj/ul6YXGU8ZG+GnGXg/xRi+O1J2tGzamSl43rO73NG4AAAAAAAAAAAAAAAAAAAAAAAAAAAABWtV6qjk8HTwtpVmt2+MOsuvQlYNPOTmeyJqNTGPiO7MMRXliq8p4huUpO7b3tlpEREbQqZmZneU1lteUKUJwk1JcU9vvO20WrtLhvNbb14WjLdWTpNLHx7S9JbJe1bmQcugrPNOFhh6jaOMkbrRgcxpY+F8LNPpukvFPaV2TDfHO1oWeLNTJG9ZdRydQAAAAAAAAAAAAAAAAAAAAAAAAAVDV+rll6dHLWnV3OW9Q6dZdOH3EzT6bx+a3ZC1Oqinlr3+jNqlR1JuVRttu7b2tt722WcRsqpnfmXzcywmsA/3SPh+bO1ezjbu6LmWr6p1HTnem2muKdn70JrExtLMWmJ3hYMt1XUoWjjV24890kvwZAzaCtuacfRYYeoXrxfmP8rjhcRHF4dToO8ZK6Km9Jpaa27ril4vWLV7PU1bAAAAAAAAAAAAAAAAAAAAAAFF1jrL6m9DKJd7dOoty5xg+fX5U/T6XfzXV2p1e3lp+rPHK72lirS4C4E3gH+5x8PzO1ezhbu6LmzUuAAvGh5uWVyT4TdvcmU3UI/5I+F302d8U/KxEBYgAAAAAAAAAAAAfM5qnBubSS2tvclzZmI37MTO3Mo3CahwuMxP1eGrwctyW1Xf2W1Z+w7X02WkeKa8OFNVivbw1tylDgkAAAB+N9lXkBnWsdZftHaoZPLu7VOor3lwcYPlv28eBZabS7ea6r1Or38tO3uoxPV4AAATmX/ycfD82dq9nC3d0XNmpcBcC7aF82z9Z+lFN1H1I+F30z05+fsspXrIAAAAAAAAAAAHxXrRw9FzrNKMVdt7klxM1rNp2hi1orG8sw1VqmWbzdPC3jRXDc59ZdOhd6XSRijxW7/RQ6rWTlnw1/t+quKVnsJuyEummdaOjalnDbjuVTfJdJriuu/xKzU6HfzY/0Wel18x5cvb3X+nUVWmpUmmntTTumuaaKqYmJ2lcRMTG8Powy+atRUqblVaSSu23ZJc22ZiJniGJmIjeWXax1g80bo5c3GjxltUqn+o9OJa6bS+DzW7/AEVGp1X9Ty17fVULkxCLgLgLgTGntO1s+r2w67MF5VRruroub6L7jjmz1xRz39nfDgvlnjt7pfNMDHK8bKjQbcYWV3vey7b9rZ3015vji0o2ppFMs1hy3O7gXAXAvGhPNk/WfpRS9S9SPhedL9Ofn7LKV6yAAAAAAAAAAABF6lwU8wyOrTw3lNbFzs07e2x3014pli09nDU45yYprXux2cXTm1UTTTs09jT4po9FHPMPMzxxL5uZC5gTendTVckqWV5Um9sH+MXwf3EbUaWuWN+0+6VptXfDO3ePZpWDz7D4vLHXhUShFXlfY4dJLn8q5S3wXpfwTHK8x6jHenjiePozTV+rJ55V7GG7UaCexbnN+lP8kWWn00Y43nuq9TqpyztHZWbkpELgLgO1beNhdNKaInj7Vc3ThT2NQ3Tn4+ivv8CFn1cV8tO6fp9HN/Nfs0vD4eOFoKGHjGMYqySVkl4FXNpmd5W0VisbQzvVT/j1XxXwov8AR+jV5zXevZE3JSIXAXAvOg/Nk/WfpRTdS9SPhedL9Ofn7QsxXLMAAAAAAAAAAAACtas0tHOYfWYa0ayW/hNejLryZN0urnF5Z7fRB1ejjNHirxb6suxFGWGruGIi4yi7NPemXlbRaN47KC1ZrO093ncywXAS70bMxMbkTs5qkHDwOc12da23fFzVuXA9sJhp43EKnhISnOW6K3/PVmLWisbyzWs2nasctQ0nomGVtVcytOrvS3wh4c5dfcVWo1c38teIW+n0cU81+Z+i4EJOAM01U/49V8V8KPQ6L0KvN6717Im5KRC4C4F60D5sqes/Sil6l6kfC86X6U/P2hZyuWYAAAAAAAAAAAAACB1RpqGeULxtGql3Z23/AGZ81+BK02qthn8kTVaSuaPafdlOPwdTLsVKnjIuMo+7o0+K6l9jyVvXxVnh57JjtjtNbRy57m7QuAuB41KXoe452p7Olb+6Q0/p+tn2J7OFjaK8qb8mP+30X3EbNmrijlLw4L5Z2r+rW9Paeo5DhuzhY3k13qjXfl7eC6FPmz2yzyucOCmKNo7+6XOLuAAMz1X5/q+K+FHotF6FXmtd69kTclIhcBcC96B811PWP4UUnU/Uj4XvS/Sn5+0LOVyzAAAAAAAAAAAAAAROo8/pZBgu3ineTuoQXlSl06brs7YcNsttocc+euKu8sczjPKucZg6uMe/YoryYx4Rj/su8OOMVdqqDPktmt4rPGM+0thKjlFmJh+3MsFwFwJ/TGqamRz7Mu/Sb2w4rnKD59NxE1Okrm57SmaXWXw8d49mp5XmdLNcIqmCmpRfvT5SXBlFlxWx28NoegxZqZa+Kkuw5ugAAzLVj/5BV8V8KPR6L0KvM6/17Ii5KRC4C4F8+j/zXU9Y/hRSdT9SPj7r3pXpT8/aFoK1aAAAAAAAAAAAAAQOq9UUtPYbv96rJdynz+1J8I/KJGDT2yz+SNqNTXDH5+zGszzKpmuMlVx0nKT9yXCMVwS5F1THWlfDVR3yWvbxWnly3N2j9hPsPYZidmJiJdMJqa2HWJ3cJjZ9GzG4DcA7MqzSrlOL+swMuy9z4xkuUlxRyy4q5a+G0OuLNfFbxUlqmmdVUs8gou0KqW2D483B8V03lFqdJfDz3j3eg0utpm47W9lhIiYAZjq3+oKvivhR6PRehV5nX/8AYshyUhgAC/fR95rqesfwxKTqfqR8fdfdK9Kfn7QtBWrQAAAAAAAAAAAEXqbM3k+R1a1NJyitie7tN2V+m064cf8AUvFXLPk/p45tDCsbjKmOxMqmMnKc5b23t8Oi6F/WsVjaHnbWm0727vC5lqXAldP5DXz/ABXYwUdi8qb8iPi+fTecs2auKN7O2HBfLO1Wq5dojC4PKpUakFOU1aVRrv35w9FJ7Ul7blVbWZJv4onb8lvXRYop4Jjff8f97M81Np2pkGKtUvKnLyJ22P7MuUuhc6bU1zV47+yj1Wltgtz2/CULckopcBcD6p1HTmpU201tTTs0+aaMTG8bSzEzE7w0LSuu1O1LPGk9iVXg/Wcv8t3OxU6rp+3mxfp+y50vUony5f1/dfotSjeO1MqVwzDV39QVfFfCj0eh9CrzGv8A+xZDktDAAF/+j3zVU9Y/hiUfVPUj4+6/6T6U/P2haStWgAAAAAAAAAAAOfMMFDMcFOlileE04tdOj5m1LzS0WhrekXrNZ7SxPVmmKunMV37ypSfcqW/8y5SLzT6iuWPzUGo01sM/l7oC5IRlx0hoernPZq5henQ3rhOf+K4L7T9nMh6jV1x+WvMp2m0dsnmtxH+Za1gMDTy7CqngoRhCO5L8W97fVlPe9rzvaeV1SlaR4axw6DVs8MbhKeOw0qeLgpQlsafz95tS9qT4qzy0vSt6+G0bwyTVulqmQ1e1TvKi3slxi3ujPr14noNLq65o2nizzur0VsE7xzVXbkxCLgLgLgWXS2sKuSSUMR2qlH0dnaj1g38L2eBC1Oirm5jiydpddfD5Z5r9Ph76gxkMfm06uFleMrNP/qjtpKWpiitu7jrMlb5ptWeJRxIRQABf/o881VPWfpiUfVPUj4+70HSfSn5+0LUVi0AAAAAAAAAAAAA8cZhYY7DSp4uClCSs09zRtW01neGtqxaNp7K3gNAYLBY1VIxqTs7qM5dqCfDZbbbrck31uW1dkWmhxVt4lq3ERMAAADzr0Y4ii4V4qUZKzT2prkzNbTWd4YtWLRtLKtZaQlk83VwClKg9r4un0fOPJ+/mX2k1sZfLf+76vPa3QzinxU5r9P4VG5YK4uAuAuBLYN/u0fniZYe1xswXGwXGw0H6O/NNT1j+GJRdU9WPj7y9B0n0rfP2haisWoAAAAAAAAAAAAAAAAAAAAD8nFTi1NJp7Gnua5NCJ2JjdmGtdFvA3r5RFunvlTSu4fajzj04eG680eu8fkyd/f3UOt6fNPPjjj29v4Ua5ZqkuAuBLYJ/usfniZhh73MhcBcDQvo7VsonfjUfwooeqerHw9B0mP8Ain5+0LUVi1AAAAAAAAAAAAAAAAAAAAAAAGda30RsliMlj1nSX3ypr8Y+7kXGi1//AMZJ+J/dS67p/wD6Yo+Y/ZnJcKQuBLYL+Vj88TLD3A/G7bwxunso0riMys5R+rg/7p7Hb7Md7IWfXYsXHefyT8HT82XnbaPz/Zo2V4CGWYGNLD7orfxb4yfiUGbLbLeb2ejwYa4aRSv4Os5OoAAAAAAAAAAAAAAAAAAAAAAAAUbW2ilj1KvlEUqu1ygtin1XKX4lpotd4PJk7e/t/Cq13T/6nnx9/r/LLJxdObU001saexpremi8iYnmHn5iY4lL4JP9nikttvzMsfis+UaQxGPtKuvqoc5eU10jv99iDn6hix8V5n/fxWGn6blyc28sf5/T911yfTWHypJ049qa/vnZy9nBewp8+ty5uJnaPaF1p9Diw8xG8+8pkiJgAAAAAAAAAAAAAAAAAAAAAAAAAAACDzfSeEzav9ZiaSU3vlHY3/lwftJWHWZcUbVnhEz6LDmne0cujK9P4fK3fDU12vSl3pexvd7DGbV5cvFp4Zw6PDh5rXn3/FKEZKAAAAAAAAAAAAAAAAAAAAAAAAAAAAAAAAAAAAAAAAAAAAAAAAAAAAAAAAAAAAAAAAAAAAAAAAAAAAAAAAAAAAAAAAAAAAAAAAAAAAAAAAAAAAAAAAAAAAAAAAAAAAAAAAAAAAAAAAAAAAAAAAAAAAAAAAAAAAAAAAAAAAAAAAAAAAAAAAAAAAAAAAAAAAAAAAAAAAAAAAAAAAAAAAAAAAAD/9k=;" vertex="1" parent="1">
          <mxGeometry x="661" y="-46.53" width="64.53" height="64.53" as="geometry" />
        </mxCell>
        <mxCell id="4vAWXHapJVL0WqVgZi3j-4" value="" style="shape=image;verticalLabelPosition=bottom;labelBackgroundColor=default;verticalAlign=top;aspect=fixed;imageAspect=0;image=data:image/png,iVBORw0KGgoAAAANSUhEUgAAAOEAAADgCAMAAADCMfHtAAAAkFBMVEX////wUDPwTjD84NzwVTnyXD/wSirvRiTwSCfvQh3wTC3wSSnvRCH96ufvQx795+T/+vn+9fTxYEj+8O33qZ3xXUPzeWb0g3L71M7xY0v2opb0iHj1jn7zfmzzdWH829b5v7f1lYf2nI/4sKXvOw7yalP4raH2npL1mIr5xr/70Mr5w7z4tKr1koL4uK/vOQjQzZjKAAAKzUlEQVR4nN1da2OqOBAtUUECteCrPtpqH7ZX29v9//9u5YJV6ITJ5AV4Pu7ehhxzkjlMJuHmxhnSw/vjbrebf+xv3T3UIW5X4+GQM8Z4FA8eek13xzy+BwHzTmDDYNV0hwwjWYdnfv8Q765Kqulj4FXBB3dNd8scEoDgkeLsekbxaQgQ9Dx/diWjmM6hEcyFehVLKjQHr0uoAokWQh13nmJaS/AKhJreiyV6otjtURQuMhcUuyzU5AkneJyL3RVq3SpaGsWuxkXYyVyRUOUkWgi1i6MoK9HOChUPE1WKXRMqQaI5/HGnRlFstutGsUNBgyrRgmKH3I3CCGbojA1PyXPwh2JH3M1DrEiwM0Fj4TOci4hiN4TaG3Jlih1xN4uBOsWuCNXTEGo33E2vmuImoCPuZtO//rnYv3qhbrSE2gmKPU9DqO3btpkAfuu6hPrIN7//4yK4GqEmTwELAYo9/0pW1H/vg8xb/P4/V+JukvyFl/chiuwabPjpfZCNgOXmCtzNRdqQcWAUtdxNGyiWcjJ8AAlVK2hM3FOqoJyT4RwQqpa7WTY8F3+lDVkACVXH3TS7ogJpQwauqJ11N9DeBPcgdzPSEWpjczGB86Kgu9nwDgpVmNkWCFXD3TQT+hNx6p73IaHyo1CZH0URJyvWHzch1LrUPQuhoDEKR7uH5+fn+2UY+1SKzoWKbL6ANnyzT09//X3Po3ZTTNbI3gTobi7RW9NS49yxUPHdJe5juyyLQX25VAVO3Y3UHj2LkFEkFGvkFN0JNcUkmgMV6k3yTKLozobL/vTcQ7cD56T1xpG7ETgZCKC7KTc2I/kAJ+5GUqIFRcjdlHCgRX8X7oZWhAC6mxLWtNhvX6jUIgRUqD1ig5ZXVIUykvgLafO+TQYOdTIA3jBVbamFDTZtuEKdDFtijaZv1DatuRtatWGB4QvaLn1H3JJQSWHiB/EWbXhOfzW2425URvA4hge04QfiUpPBQtAgOJkSoCx4BSvSK8aJommhqkk06wk+hi8qDI27G6VyygzxHm37US1FZVSoqhI9YjhFWx8oplINClVZokfwOdZ6Qo6HPxRNxUUVJ3PGCGv+ECq3bUqo6hL9xxCbiIf/Gt6ZUqvZvujEGnvClp4hvqCoPRf1JJohQFMZ20hnI1xXqGpOptSHe/Qhn2+N7UwR830wglf0OfthQ+UMOmHiDMbwCnytuaghVM1F5gTex7uwVY6KGkLVcDJVitA+TQV7nV1iNaGakWhBsf+NPk8vaKjExbX6wZDfYPEa/Zm3I/X2VYRqTKKnPoRo6N9rBQ3iKJqUaAHWLz1hAvTIobtJjEo0BxuUHrHZAT3aasVFilBNBPoqKgx7bAD0yJG7qamy0ECVYd+HTlR+6nhUWaEmDzYI/mbIfFCoDtyNlRGEGMK6su5ujJhtCADDo9kBhLqPrbqb1I5EPZihZ16oaFy0ECYKgAy9aAcJVT11gwrVtJO5AMzQ8z2gR9bcjQUnc4aAocehNd6SUBONU9g4RAyPQgV69K3xW4uFamsVzSFk6PkCd8OHcXhEPKQOqGAU7TiZM8QM4VLubf/xY7vp9RbbjzkjHhED3Y1diXq1DOGgcZv89O3uY0bboILczb1lgrUMvQjzW+kqpFVPVeeiNSdzRi1Dj/exSH23IxZrlmRhz8mcUc8QFmoJkzWR4uUo2nMyZyAMYXdTBm0tvKTogiDKEHY3ZexIRQ1nijo2UB4oQ9jdYH9Uh6jYnp1oHEoiAGcIu5sSXmlqC/Kiuj/2V5kMEgxhd3OJ5IkUM9goO/9wq1opQIQMQ4+PE5jaCd/EQcwKJfZuhlCOIVsiDBPaQRS2Ow7iX4WiKxVIMcSLU4jlqNnxpKUbkUoyREuotjTJZduzZvqPQ4qhj4bEA62Cyn9oG0OM4M0dLbZlpSCGCKCQYchmKENi9OaPLWO4M80wG8Ndi1aayg6cAYbRs2p5Jx2G5uGG9tTR9rg4tYlhhBam7Gkhnx/NfOIoIEoxDLYYwylpQPg880hTjQoBAuTG8BljSFs2wn+/WLpTPylPgJwvZSlE6+LPSHtvvDjPstDYzpKHFEP0mNQfikgZO1UqvWrUI8k/ToohW9YO4h3pgE14/uTSq0YNhCzkGHpB7TGiOeXNIrx8UflqPJv4A17zevFKIRiXP5r1bn1BlWXIxBcKbigps9Gfyl+/a9yPJwVZhp6/E4R90gXF4e936S/L3kaaocdnoFC3FEcKEMxWVBNEhJBn6HH/61e6Jv2gxLSgKtEcU6tCJTD0WLj7LP3r5KtPWQtD0Zf5vmwGDQrD4zAOZ6vNJB/J28VLn9QzUKKFUC1uYNAYZt9IjJbz9fPf9XwW03752pO5U3sGjsow+xPuR5FP3cUP648e23M3CgyVUCPRgqLTqi/zkPj8p63XRTcMQzhMOBGqE4aoRAuKjipozT9jJPuFWis23AFDgZOBYMPd2GcodDIQXs3bcOsMJefgD0Xj7sY2Q4JEcxh3N5YZIk4GHEXDQcMuQ6JEC4pmhRrZZBh8KBA06254OC+fspyMDbYu5WQgvBsT6nD5+xTpq8ZHk8pQkmjRCUPuxr+H8rwbWpmaEDElDlZhRqjxX7j12x1tq0zQOrqbU0/RgLsJBATNbAqRnAwEfXfjP4lbv9M4V1EQVJ+DJ+jacFZ7daJuljbQk2gOTaHG9ZdGkPZafkHByUDQcjfIdtnNQsdXGJBoQVGjFwHSiUThQrqfts2MYAaNoPGGlf2qn3BSdjIQlN1NxW8DuFU9FWtMojlU3U0kjIU/UPyop5aTgTBVK+iXuBmSVrp9wshEmKhQVAoaAX7nnsrNkPpOBoKSu7F0M6QVgsflRkGodXUH6gyNOBkICkKVuBmSeN/1EaHaG70M3sk/t8RFX+QCV0sSLSiSL27Gb2ujap+cNqRhSqUYYC2SimQ8w04GAtXdoB8PIC40ViVaUKS5mwj5yVNaAa9i2pCGFUlWDLmObk8y9SFuAk1gShLq8KGuLdoQOpBoDppQWV3QJ50UkN4A1QfJhtfp9EBZmsU5OxsUKe7GfxIlMjaU77BadDIQSO5mOIdf9A+Ub+k6m4MnkBIb0RIqGd0yAkFrZluMFWUK8dG0Wk95t6ZcJGTdyUCg2fDh4P2iujnprRllz8K5RAuKJI/K4sHj+2aSpulk//LESHfrGUwb0rCiJRkZD8I3r++/jYg7h46cDASau8lp0rM9DUk0B9GGKyF2GwerUEwyUgg2J9GCouVzGo6dDAR67oZEsMk5eILNE5pOzbYYK2vLTSNOBgLtbC6BYBskmoOcgZOC5bQhDUR3I4XQ/dtEHRTcDUawPRLNMTW83MRNmW0xaElGDKPaDF1DMOluWuBkIJgLGqN2EjRnw1viZCCYcTetcTIQTAi1dWGiDH1300DakAZSkhEawbYT1BVqyyWaQ8fdtMpsi6HublrpZCCoCrWlTgaCGsXRB3K1Z5ugItSgKxLNQXc3rXYyEKhCba3ZFoPmblpstsWguJsOOBkI8kLtUJgoQ9bddMTJQJALGp1xMhBkCg87K9EcuFDjlw45GQiYUGP0452tR727MXS8rlnUBY1OmW0xxNs2HTPbYojcjYWzS00BFmoHzbYYkA1vfdqQhmlY2bZhDZZy2cFhfHnhDRsOtk33yDgmq1mQHxdlfjz7q/hJ+3Zjsn8eZwTHD58u+f0PDnHSJCefyiEAAAAASUVORK5CYII=;" vertex="1" parent="1">
          <mxGeometry x="759.68" y="-30" width="51.24" height="51" as="geometry" />
        </mxCell>
        <mxCell id="4vAWXHapJVL0WqVgZi3j-5" value="" style="shape=image;verticalLabelPosition=bottom;labelBackgroundColor=default;verticalAlign=top;aspect=fixed;imageAspect=0;image=data:image/png,iVBORw0KGgoAAAANSUhEUgAAAOEAAADhCAMAAAAJbSJIAAAAilBMVEX///8YFhYAAAAVExPDw8MOCwsGAAASEBD5+fnx8fEMCQn8/Pzy8vJbWloJBQXIyMjX19fr6+uxsbHPz89paGinp6fk5ORwb28iICB2dXW8u7tlZGSamZkdGxs5NzeHhoZQT09GRUUuLCzd3d1JSEiura2jo6N+fX0/Pj6RkJBdXFwlJCSMjIwxMDDgR8+IAAANTUlEQVR4nO1d6XaqMBCWSSGCirgr7lqXan3/17sgbmhCJoEQes79fvZI5TPJ7DOp1XSj7gbhbr8ctdaLzXhsWdZ4vFmsW6PlfhcGbl379+tEZxv+jNYUrvBtSoiVgBBq+8mf7WP/txt0TL+qAoLuZDWOGDj2nRYbhDrRp6zvSTcw/coS2A5O83h5srmleNoxzdX+L7B0w4kXbUk8uRea0YPOpOuappCF4W4arYUKuwfLaM+eBkPTRNiod1u+2uK9kfTBWe2apul8oDdR3JtMktF+nbZNU3qFu1/k25wM+HCZVeVIbpcEaLH0rqBAJ1UQrttp4cv3AAFY9Qzz630Xd/qY8GBt8kD2WuDppHeFDStTHKP96WvnF8ODlonz6B7AKYVfDB9GZRvnjX1kR5YJgFmpjlbvqE1+8kDgUt5xbBzALplfDBtGJS3jl1fuBn0CICyBX3NU+gZ9gkBfuyXX25hawAQw/tJL8EeLBSoDCkuN/DpHswuYABbaPOQvUo4NI4KnS+DMjO/QOwj8aOBXnxqUoR+AVuGq0V1U4Qg+AZuCD2NwrsYRfMKbF+obt30TZlo2aJHyplulI/gAgUFRBHfVOoJPwL4YgvtKruAVxWiNn+oSjCgWYML9VHWLJshPcV9tgvk36q7KWzRBPnFTTTXxhjxKo131LZpAXfVv9QbsCwMBxYCxu6meqcaGPVcywxuL8mLaeeFtVJyp6d84hAmgJU9w9pcIqqjF9l/QE6+QFagdqyoxGSyoLydt1tkufVKUVpoyIbfvy/yQt5AhKDC3/emg2x389OPCNd1rHde9WdOf+Av72cJdxgjvCaQM3NOVzfCw0UmSApxH4T1V4QpkA6AD/k2BqvdPqZ/jcNaUzbdhPErlDAWLSM/YtM1EtITdt1+ku9KQ0ffg+F77FYperI8jKLK3CUNqBSdwCpU7PquSpmMJvgOnMhq24FzZ36zHtv0CKxd8ODGN6ZbgOBDAWG8HkTEDM/aDwbSg5DeFFifaK4w4wERMsCc0ZoBbMdDmFDAQQqkHaXj0Wfed/jCcuTJRJOSzXu6OxlEoF7N2wt5JvQO5EaPjY2uynA12u26E3WC2nLSOZ3KjmiIKvC1yhZChvWgIGA6E/4Oes553R3f1eC1RX7Qm+3bAs6c6QXtwaC2iDzr3h6CfWRq0EOrezB8oQlNscPsCkfx1gbioEDajWW+IOfj1YW8/WVzNI5gLhKFQSERfnV09Jf4Pwh+pVj+Adwg7cj5pww2XGxiJip/FW8yCUdY/2CKcwnd9z4Bqkbb4OZHOv75gVtRGYBYl/8BkvWeAYJg2KuWft2BbHqEPdFBvyF+DE8YqAZP15XUMQ3/Fexy1hJnqUDtQDPmL2EI5CH+Aob1mP40RpH+DIU+cjnC+QfXPIU+cDpHxQzDZd+XiGBKmwP9FhoDBZI8H8iRZcPh8tjlGBpQQNo0+fCEZEvp5ltAlJUK7VCcQdin3LddY/1zkW2gFwjNIQC/vj+K0fQwyN0Hthgs6NvshLtA/zks8uHwglUUM582JakikmkppCWADK2iur5n2xTB+1+PXMXcQJXbau8yfSsSsydiUVVPHH0PL8lJp4Q47sMdhaMxDHMokgdKh+a5MStugypc5h+lKIkz04vHgrzGCctUF3ov53ZTYpCpVDwWij6dIXrwgicXH5+j0oL7A50Ze1JqMutfcWCWEOHXxfNdnmgbrVuByO5qxxNuX/v2ZIf4ZoyGMGyhaaDyCGfhafNgZ5ZYAb389imvRusI+ilJXpWCFLYx4mDXoY2jQ5n4FurCXWMkD2NhHtIRmmT2AXsTbQUTv60qcwhj4N04MTKz4JU4FBGkCUdXJg2Gi3LBrzorQGQI28pkUxrgbbBixCgN/EmA1OJl3JD6dXaFQMsQVC7dViV1ZrNmttQ9eFthurKuowbpcxm3uV2Dt76szK6pEvIH4VZktFqM5x0nTa0wRKUrtlWlWKYhq+O5vva7VGmfcoa2QroiBVOKE1tFh5OLaigsB1qyBJlpZGE0bfgKbZ4mUONZQN1pG84kh0g+O3CFkqDSxDqqD5hnJcIfNOdJLJZzfJ5BWTeTmIxU+lepIKQHIjG5kiSEjibwiHGNY4Rj6o1ofqTqZBfoGgVX5rVoL91tUzKSp1U44hnRd+8ad2L+6hmRRO+KkbvXOIZLhpXZBMqxKnO0OpKSxxrUNjiGtGsNvJMM5mmHV9OERGceY1864D1KljneNQBctYNfQXAEGG3VshHCOlTSEVmucfwcZxogkzQIbPq5OtDTGFtnQSc5YffhXPWCywdo0ZgtnP4EupV3UTki9omXcpDqw86voqjZBVrS9VzMaBrZ8xJ6ic2sVcy6QroXlT9BBfTKu0sUo6CpF+JWoDa+SQkT1sF3fei+dMa4GZN4aXUX1J7NrccYMXRBVKf8J6x3GgWx8+TtUR9Q0ZF66gTXSq1IvFANdLkqsOjqkUymdjy4XvQbQ0J8mtmliD2BdJ8uJC2rwpdNG+9Rfga+ivebx8QMuDbaSpIGvab7KDon6WasakYwmMjFv3bKeTYl+sGpkuvHdIbfoElqYWlQ4/KUUYEOlD4cIXxpejaoh+Wp9iW4Luwpx4W/8dLibt4BtU78+Yn4RJZbwUV6BF00W3Rg/iUd808yjoRc5TCH5VUx2csdAe+wR/HutvkxvHrHNuvqduUQL4kO7oUMCMZyVSYJy042fVU5oB+r62J+YOBDj3m5Rk9KIltH4fiA13filDU1uujwdmyoAEw1WfWf4dNnrY6nJnP7FTDyjfpSarkm8l9eU0Rfxj/NtJCHckhsx7k9fnpUZOHCluDKg+E+yL/naxOSiwwL3p9dlb9T6SpLgm+aWaVe/wjmXW1E7vMhOwX+bFSXVyn+FXWpw8cuXHjf9/n7yY/RJiWH+X/mZ4R8tyzJTQ+6ASznVC4HKvX0fQz7RjaSvoHDQH5tyl0oDmD9rR9Cdp+n/M9/r1Rv1wVjpog1GpSHbhSLJpGOHewwobHQG4AYbxan9jFugmEFIAq192A4H/QtwRREF+NGzVzu/yrcSMEO7jKQjIQ83IliOuRwJQP+raAvADaf8X1UIppzvfNZR0dfCYHeWMVbegc2hXZyx6oajcZ7LCDhjkEYfi0j81AfdVsaPGm1WetoVYej09t9eznsIOKOEGQrDXqQ33yDzXFzFUn/Wc1UXszkMf1bR/7DzXrPAKzOcfu5CZ5H2dnuio0/iSeyX07IbbCXEjzsMwtlkNY+H0OckF8Nbcb6HpfU9ko4BBz5CutHk5hv8QKllMmG/qBsy+HEW1hAm+jYoPRBdf/H4GpmkOLIZGQefP8qKHegBkvpJkHdd8UdOMyHpv2ciK1TG/ilpuhwKlRaXjRxLRXqz4UyzvodzA0c6NbrCzKaXvTuzuEuHs7tdeZHTVMyDYRu8Q6E9A5/3FBDMbjqv82bTpfa2uEBXocyvoCtBiWgaNy9LQ1N9wGvRnT2eNEHJ3AIX4uOx4piDqWmCoqSqUlG4VE6CB8SwLm5qIPXjCBJySq3tomvVUMBUNfGETfoCl8wpP4qtfKf8V5vhZgLyLneElJ7JskIUZ2jkvxgUOROQWwqQthUO/E2lWM+An7id94t5kcU3k33GjYEpFr2ju7W4BLGmMHdG6JvB17uwl9GZK4Y00HPh2aAbtMPGu3vtvTixMfsIFREbYK1adCMzkZoBmepQ3pn/2H712QLASXxyEruF3nqmXqyhEnh/eTmpLAMnlcVyaoNZf23FDqx1nC7DXLUouYSpL9dP77LnYT6nuqbQcDsRlMMzD+TxLyiVrC7gHEW9jTOyqejUm0kffrb/oLeuTT6L+SSoUOXDNlq01gupM4Qsv56LNev7iKMxu63M0FcrXnY3LC/Q01gJrcrQVq1h2hKWQMVeK6wARYbEUc5FswWqvvy9IsM8nS4hm6Ku2xHUGOYbb9xlU5zqOYsqDIl03PIN7OAJHLVIVBWG+dUXW/N7WvSiAsMiBiHsmRuVgFW8ASfNkBQz6WHANlEpjHM4SkzIMiRF7SS2uLkmtluz4N2f7wQDVfUky7C4TrOQl/mN89rjY/+nG361219hd3ZYXSJfUdXHl2NIinR0Aosfxie2k7oUnqi3DkkxtJ1CW1q3G5luozIY+uOCywab3yX08EkwhEXxDQMTdFpBP0Oix6raY4vMtDOkuvzwHrIQUjdDn2rrgsws+3phqFoBjmMIa509O/xcRVkMqe6b7TA11zoZwkb7YIf6QShw9DGkMCmjk6VnibL4uhiCX1aj9W92dasmhh4cyuu2ClZZW1ULQwLrcjs7u/PCk9yZDKH8mRz1H26hefEMAQ4mmjo7E+BkGQtm6EDf1NUT2xGzfL9Yhj6cTA6H3bKaIgpkSBxomR5+O5w473JVOcr+zpAATKtwNUpndk5X2Ctf2JIupbdhvKzKNMpmd/WyWXMMsXkW8kTLtx5UZ8hfhO0Sbn0udo6ZC73EdSF+pB5MHz8GvkZxRwgs8hj/7UX8L8g0ND4Ghw23F4bbfO/WCMKwV61rif7jP/7jP4T4B+mr1evxwyv0AAAAAElFTkSuQmCC;" vertex="1" parent="1">
          <mxGeometry x="843" y="-38" width="56" height="56" as="geometry" />
        </mxCell>
        <mxCell id="4vAWXHapJVL0WqVgZi3j-6" value="Visual Studio Code" style="text;html=1;align=center;verticalAlign=middle;resizable=0;points=[];autosize=1;strokeColor=none;fillColor=none;" vertex="1" parent="1">
          <mxGeometry x="633.26" y="12" width="120" height="26" as="geometry" />
        </mxCell>
        <mxCell id="4vAWXHapJVL0WqVgZi3j-7" value="Git" style="text;html=1;align=center;verticalAlign=middle;resizable=0;points=[];autosize=1;strokeColor=none;fillColor=none;" vertex="1" parent="1">
          <mxGeometry x="773.66" y="21" width="33" height="26" as="geometry" />
        </mxCell>
        <mxCell id="4vAWXHapJVL0WqVgZi3j-8" value="Git Hub" style="text;html=1;align=center;verticalAlign=middle;resizable=0;points=[];autosize=1;strokeColor=none;fillColor=none;" vertex="1" parent="1">
          <mxGeometry x="843" y="18" width="59" height="26" as="geometry" />
        </mxCell>
        <mxCell id="4vAWXHapJVL0WqVgZi3j-9" value="" style="shape=image;verticalLabelPosition=bottom;labelBackgroundColor=default;verticalAlign=top;aspect=fixed;imageAspect=0;image=data:image/png,iVBORw0KGgoAAAANSUhEUgAAAOEAAADgCAMAAADCMfHtAAAA1VBMVEX/////AAAAAAAXFxf7+/sdHR3/IyP/hoa1tbX/dnb/7+/Gxsb/4+PY2Nj/NTXt7e3/9fX/oaH/FBT/3NyhoaH/UVH3AAC5AAD/vr7/f3//jIzg4OD/srL/Q0P/6ur/8fH/xcX/l5f/bGz/ra2Hh4esq6smJiZgYGBXV1dKSkqPj4+YmJj/zs7/HR3/Tk7/pKT/YWExMTE9Ozv/Rkb/Wlr/1dX/cXH/PDxwcHBFRUUQEBBra2s3NTV5eXm+vr7p5+evvLzCzs6aqKjV4eHnVVXgTEzwZWUPkHK6AAAI0UlEQVR4nO2da0PiOhCGA1QEFGFF9yAqiLp4Qbwru67rnsue8/9/0pEq7cwkKdQ2nbSb95M2aTNPk8zkVhUiUs3x6aiSnUZfa160QSmr+a2cvZoZAo4Z+F61lhngMQ9gdrX4hQswK8QWH2BGiOechJkg3rASPu0aB9xlBXyVccQ1bkLjtVjjJixXDCPyE5puqDYQln9mSFhZMaqKmnDFJCImHAvPpERTU4mjVlaEpgfDOsLyk7latISwXDGGaAtheWQKkY/wlIyIVwzN+vkIz+jEdGQGkY/wVpp7PxtBZCUUPzDirQlEPsKb2QWCeGMAkY9w5F/5brwvchNSxG+pI7ITihPDiPyEtBbT9qh8hCvBVVKLKXtUPsJKCHJqsqHyET6BGRNBPEuzTDsIaUNNE5FxboFmvWcY8TS9MhkJ8XSJbPCdpFYmIyFZYiOIqdWiPYSmGqpFhOIWI35Pp0xGQmnfySO7RF9TKdMmQuE9G6hFqwhFy0AtMhKqCmuNMOKP5GVaRmgA0TZCCTFxQ7WOMPVatI9QtFYw4nmyMhkJX3S5KOJxojJtJJQaaqJaZCT8os9HjzGNE5TJSLgVkZEegkmAyEgYaTVF/HhDtZVQ7D6lVIuMhAuqhdZiVKOOEiPhoiCQEiIj4cJJPN0T/xhitoS4WhYevUwFMVtCgS2OjRgRQrXKmJAcijob12q1l7Vm86fmyBBFrMUvMmNCsudLNXo+O/l6PB6Pt2q1GbcnnQ6Nj5gxYfLjrLFNzJhQaOxeXrG3+rMmTP71StzD71kTeiON4Usrbk/MmjB5T7S9DpN/4GE/4aKIUQBCsVV4QtG81VhfGEIhXp419heG8HWasXU6etJAFINwJq+1lMb5JVxSW44wUo7QBjnCaDlCG+QIo+UIbZAjjJYjtEGOMFrFJ/wT3f2XEQuT6m9k4z+Lsl+sTqtAk89Qk6qNwjaipOnqBeHbKxVPe4Bv/Y7bGiO6Ww8AuU0xpnfEPrcdBtX3CTe4zTCo6QzwitsKo7p6JdzkNsKoNoU44LbBsA7EDrcJhrVTaD8z04bgtsC4HGH+5QjzL0eYfznC/MsR5l+OMP9yhPmXI8y/HGH+9ZsR9toNqPaRnP9hAHMMBpdh0n5jgG+fKEvET/AzrqIMG305R7BeNoQmDtaXWOzFdbgusPZp9h2SAb6DK7olOVSWSMuY7V2iDIeK3c2AEBfSjk14Rx78QHJP2jgdbepIpqv3tBSEfWTonpwhJPyUkJA8QND1Ylo43He8l+3aXpIQPafUMUpIy8d9iUJ8gold2S7lzrKKsAfSq4r0NAkvyaORsyFvF7dChV0DlQEqQtgRVd0wTULJXwBnQ90MaoQ00dfhkoTQClU3TJWQWtAJU8g3jHjjUdV7iJOMIATvsW+ccJ88PHA25OXizfENlV3KzUkl4RBYZJyQ+tN5Z6I9dDvqJoXlkYRhZdczIKQ2vDubB+XVuZRtSxkSlYRekKzshmkT0tryoxXxJOQAx7UaUBUSAaEX9uz7efIgSISji5QJaZPznQ0ZzRDLYTBElSQPbUFy/yD4cfieOg0fA31X2oS0JdVLpSN8hRi+CfkfYYttRD270Qt+nI8Pw6bShd0idULiGdvUwdJDRsg9VFFIlUIiIBzcBc108D54ChvDjlHC0hATHZGTfvckO2xQndI2zCqFREDYLjWCn69patVoK9UE8ACYZJ7AxCHps9UowtBzvo1xpyDNMCH1p1DSQTjULLfJILxHMkPCzbB5v3XE8PeuaUJdCH9nwGqAxJlreYS5aUiEhJNwBOP5xh4Ev68aJ1RH5pmkAHBNU6uomW5on9uugpGC/96CaCgm5gnp+HQu+bAmapS+x0DjH/JGMGF472wgH/rwfsk8oa6dUj9Kljb8Sz14pR1FGHa8DrqvmwWh2p/KgxQ0nuv6l3D9P0YQghl9CXbDeiaEdF1qJnmMgptk/e0aGojj44+YEHBcwxnoNBNCGvdnupQy4fHP+9AExY82ComEMIyIV6DqZw44C0LZnyrWiFGZ8+ElGtbgkEgIw2WZddwNsyGcCizVofcBzBCwoBWPDsxPCDcCP+WVDoKUelaE1J8qVpbwzDBYb8Fri1M9Ifj9MOi93kZmhGTeK/dC8N4FHL9gcNi4KWE4L7sIKt5vKyyE8owdB8P1o725sCURhKqFmT2LCJXLpLJA86aEnxXZ6xYRkvUpnUBIpISqAXDJHkLqbHXywpAoER5JudctIpT2DHUKN0ElQnmdbs8iQs0yqawwJEqE8ir34dKEiwETEir2DHUKIqVMKPXlydKE95fbCqGt62SEij1DnYJ9HJmQdsT3+l6CUCM0hkpGuDxg2KBkwm2S9cgewtUYhPPlQgVhta3MaQMhniJ3ukR4v3EeEmVC8hzVVSbC/ajEV5FlZD0hNns+uLWAEAdDefZPGnFPS4gj4vz8gwWEOBjKBy/I7kdHS4g2doIxLD8hcYGKuSNZyrrTEeKMm4qLPIQkGCruJuZcaQlhxuAcFj8hTlJ9T0w2P/paQtgcgqFBNoTEWUDCHk5Sfk/cwHn8QAd6bzjjUJUBZ1Wak3saoa2SBYT7vVUouCx4iJJ6ylH+Ibq75y+X18MLO8FN4cVwXQ5k7AWHz7axQWqhJejf7ARtIeUI8y9HmH85wvzLEeZfjjD/coT5lyPMvxxh/iV/RFkw7UtHeIumofSZaNH0gM8rFU+zoxRdbiOMyl+Yf1ycL7d6JAvKhdP8uI9X1IixH+5CF/OPmKJtpc510f7Y7uY1PYjfuBju1EP9+gPqV91G/Yts/A+k7AwvyLaXrAL+5wCi4v/3B0dogxxhtByhDXKE0XKENsgRRssR2iBHGC1HaIPSJDwXnoU6S5GwXFmxT5VymoQ5kCP8/QjXuA2Ord2YhLvcBsfVSismobjhNjmmTuMCinNuk2PqJTZhi9vkeBrFBhTiC7fRsRTXk/o65rY6hmofARRizG330vog4GtQvOU2fSmdxg2FUM3x2ahis0YnWwv4/gfUGB/s+sKX9QAAAABJRU5ErkJggg==;" vertex="1" parent="1">
          <mxGeometry x="925" y="-25" width="43.19" height="43" as="geometry" />
        </mxCell>
        <mxCell id="4vAWXHapJVL0WqVgZi3j-10" value="YAML" style="text;html=1;align=center;verticalAlign=middle;resizable=0;points=[];autosize=1;strokeColor=none;fillColor=none;" vertex="1" parent="1">
          <mxGeometry x="921.6" y="18" width="50" height="26" as="geometry" />
        </mxCell>
      </root>
    </mxGraphModel>
  </diagram>
</mxfile>
